ComicNeue-Angular-Regular.ufo
<glyph name="exclam" format="1">
  <advance width="185"/>
  <unicode hex="0021"/>
  <outline>
    <contour>
      <point x="115" y="159" type="line"/>
      <point x="61" y="148" type="line"/>
      <point x="61" y="682" type="line"/>
      <point x="115" y="692" type="line"/>
    </contour>
    <contour>
      <point x="117" y="92" type="line"/>
      <point x="110" y="10" type="line"/>
      <point x="54" y="0" type="line"/>
      <point x="61" y="82" type="line"/>
    </contour>
  </outline>
</glyph>
<glyph name="parenleft" format="1">
  <advance width="377"/>
  <unicode hex="0028"/>
  <outline>
    <contour>
      <point x="295" y="-79" type="curve"/>
      <point x="258" y="-118" type="line"/>
      <point x="134" y="1"/>
      <point x="65" y="197"/>
      <point x="65" y="352" type="curve" smooth="yes"/>
      <point x="65" y="521"/>
      <point x="147" y="699"/>
      <point x="280" y="810" type="curve"/>
      <point x="313" y="768" type="line"/>
      <point x="202" y="672"/>
      <point x="119" y="515"/>
      <point x="119" y="352" type="curve" smooth="yes"/>
      <point x="119" y="197"/>
      <point x="194" y="18"/>
    </contour>
  </outline>
</glyph>
<glyph name="parenright" format="1">
  <advance width="377"/>
  <unicode hex="0029"/>
  <outline>
    <contour>
      <point x="61" y="771" type="curve"/>
      <point x="98" y="810" type="line"/>
      <point x="265" y="668"/>
      <point x="311" y="472"/>
      <point x="311" y="340" type="curve" smooth="yes"/>
      <point x="311" y="180"/>
      <point x="237" y="6"/>
      <point x="116" y="-118" type="curve"/>
      <point x="83" y="-76" type="line"/>
      <point x="189" y="37"/>
      <point x="257" y="192"/>
      <point x="257" y="340" type="curve" smooth="yes"/>
      <point x="257" y="623"/>
      <point x="63" y="765"/>
    </contour>
  </outline>
</glyph>
<glyph name="asterisk" format="1">
  <advance width="417"/>
  <unicode hex="002A"/>
  <outline>
    <contour>
      <point x="319" y="642" type="line"/>
      <point x="344" y="594" type="line"/>
      <point x="286" y="565" type="line" smooth="yes"/>
      <point x="271" y="557"/>
      <point x="242" y="551"/>
      <point x="239" y="551" type="curve"/>
      <point x="240" y="550"/>
      <point x="262" y="535"/>
      <point x="275" y="521" type="curve" smooth="yes"/>
      <point x="328" y="462" type="line"/>
      <point x="288" y="426" type="line"/>
      <point x="234" y="487" type="line" smooth="yes"/>
      <point x="223" y="499"/>
      <point x="207" y="527"/>
      <point x="207" y="527" type="curve"/>
      <point x="207" y="527"/>
      <point x="191" y="499"/>
      <point x="180" y="486" type="curve" smooth="yes"/>
      <point x="126" y="426" type="line"/>
      <point x="86" y="462" type="line"/>
      <point x="138" y="519" type="line" smooth="yes"/>
      <point x="149" y="532"/>
      <point x="172" y="549"/>
      <point x="172" y="549" type="curve"/>
      <point x="172" y="549"/>
      <point x="142" y="558"/>
      <point x="125" y="567" type="curve" smooth="yes"/>
      <point x="71" y="594" type="line"/>
      <point x="95" y="642" type="line"/>
      <point x="147" y="616" type="line" smooth="yes"/>
      <point x="164" y="608"/>
      <point x="185" y="590"/>
      <point x="185" y="590" type="curve"/>
      <point x="185" y="590"/>
      <point x="179" y="621"/>
      <point x="179" y="637" type="curve" smooth="yes"/>
      <point x="179" y="690" type="line"/>
      <point x="233" y="690" type="line"/>
      <point x="233" y="636" type="line" smooth="yes"/>
      <point x="233" y="618"/>
      <point x="228" y="589"/>
      <point x="228" y="589" type="curve"/>
      <point x="228" y="589"/>
      <point x="249" y="607"/>
      <point x="265" y="615" type="curve" smooth="yes"/>
    </contour>
  </outline>
</glyph>
<glyph name="plus" format="1">
  <advance width="441"/>
  <unicode hex="002B"/>
  <outline>
    <contour>
      <point x="387" y="278" type="line"/>
      <point x="376" y="224" type="line"/>
      <point x="247" y="224" type="line"/>
      <point x="247" y="95" type="line"/>
      <point x="193" y="85" type="line"/>
      <point x="193" y="224" type="line"/>
      <point x="54" y="224" type="line"/>
      <point x="64" y="278" type="line"/>
      <point x="193" y="278" type="line"/>
      <point x="193" y="402" type="line"/>
      <point x="247" y="413" type="line"/>
      <point x="247" y="278" type="line"/>
    </contour>
  </outline>
</glyph>
<glyph name="comma" format="1">
  <advance width="317"/>
  <unicode hex="002C"/>
  <outline>
    <contour>
      <point x="163" y="81" type="line"/>
      <point x="233" y="42" type="line"/>
      <point x="139" y="-124" type="line"/>
      <point x="90" y="-96" type="line"/>
      <point x="144" y="0" type="line"/>
      <point x="105" y="22" type="line"/>
    </contour>
  </outline>
</glyph>
<glyph name="hyphen" format="1">
  <advance width="442"/>
  <unicode hex="002D"/>
  <outline>
    <contour>
      <point x="363" y="223" type="line"/>
      <point x="71" y="223" type="line"/>
      <point x="81" y="277" type="line"/>
      <point x="373" y="277" type="line"/>
    </contour>
  </outline>
</glyph>
<glyph name="two" format="1">
  <advance width="524"/>
  <unicode hex="0032"/>
  <outline>
    <contour>
      <point x="119" y="54" type="curve"/>
      <point x="463" y="54" type="line"/>
      <point x="453" y="0" type="line"/>
      <point x="65" y="0" type="line"/>
      <point x="65" y="27" type="line" smooth="yes"/>
      <point x="65" y="182"/>
      <point x="125" y="241"/>
      <point x="237" y="317" type="curve" smooth="yes"/>
      <point x="351" y="393"/>
      <point x="399" y="450"/>
      <point x="399" y="510" type="curve" smooth="yes"/>
      <point x="399" y="591"/>
      <point x="319" y="620"/>
      <point x="265" y="620" type="curve" smooth="yes"/>
      <point x="167" y="620"/>
      <point x="108" y="537"/>
      <point x="100" y="524" type="curve"/>
      <point x="63" y="566" type="line"/>
      <point x="88" y="599"/>
      <point x="156" y="674"/>
      <point x="265" y="674" type="curve" smooth="yes"/>
      <point x="410" y="674"/>
      <point x="453" y="576"/>
      <point x="453" y="510" type="curve" smooth="yes"/>
      <point x="453" y="410"/>
      <point x="359" y="333"/>
      <point x="267" y="272" type="curve" smooth="yes"/>
      <point x="173" y="209"/>
      <point x="126" y="167"/>
    </contour>
  </outline>
</glyph>
<glyph name="three" format="1">
  <advance width="549"/>
  <unicode hex="0033"/>
  <outline>
    <contour>
      <point x="356" y="385" type="curve"/>
      <point x="431" y="355"/>
      <point x="480" y="296"/>
      <point x="480" y="203" type="curve" smooth="yes"/>
      <point x="480" y="52"/>
      <point x="354" y="-4"/>
      <point x="274" y="-4" type="curve" smooth="yes"/>
      <point x="188" y="-4"/>
      <point x="97" y="39"/>
      <point x="67" y="132" type="curve"/>
      <point x="119" y="154" type="line"/>
      <point x="137" y="88"/>
      <point x="201" y="50"/>
      <point x="274" y="50" type="curve" smooth="yes"/>
      <point x="275" y="50"/>
      <point x="424" y="54"/>
      <point x="424" y="203" type="curve" smooth="yes"/>
      <point x="424" y="317"/>
      <point x="329" y="352"/>
      <point x="223" y="352" type="curve"/>
      <point x="220" y="406" type="line"/>
      <point x="338" y="413"/>
      <point x="407" y="467"/>
      <point x="407" y="535" type="curve" smooth="yes"/>
      <point x="407" y="580"/>
      <point x="354" y="629"/>
      <point x="268" y="629" type="curve" smooth="yes"/>
      <point x="194" y="629"/>
      <point x="140" y="580"/>
      <point x="128" y="569" type="curve"/>
      <point x="91" y="609" type="line"/>
      <point x="112" y="629"/>
      <point x="177" y="683"/>
      <point x="268" y="683" type="curve" smooth="yes"/>
      <point x="378" y="683"/>
      <point x="464" y="618"/>
      <point x="464" y="535" type="curve" smooth="yes"/>
      <point x="464" y="459"/>
      <point x="414" y="412"/>
    </contour>
  </outline>
</glyph>
<glyph name="four" format="1">
  <advance width="518"/>
  <unicode hex="0034"/>
  <outline>
    <contour>
      <point x="396" y="10" type="line"/>
      <point x="344" y="0" type="line"/>
      <point x="344" y="167" type="line"/>
      <point x="38" y="173" type="line"/>
      <point x="396" y="684" type="line"/>
      <point x="396" y="218" type="line"/>
      <point x="463" y="217" type="line"/>
      <point x="452" y="165" type="line"/>
      <point x="396" y="166" type="line"/>
    </contour>
    <contour>
      <point x="135" y="222" type="line"/>
      <point x="344" y="219" type="line"/>
      <point x="344" y="521" type="line"/>
    </contour>
  </outline>
</glyph>
<glyph name="five" format="1">
  <advance width="562"/>
  <unicode hex="0035"/>
  <outline>
    <contour>
      <point x="263" y="0" type="curve" smooth="yes"/>
      <point x="210" y="0"/>
      <point x="118" y="24"/>
      <point x="67" y="131" type="curve"/>
      <point x="115" y="152" type="line"/>
      <point x="145" y="85"/>
      <point x="211" y="53"/>
      <point x="263" y="53" type="curve" smooth="yes"/>
      <point x="263.555" y="52.9951"/>
      <point x="264.109" y="52.9926"/>
      <point x="264.662" y="52.9926" type="curve" smooth="yes"/>
      <point x="377.076" y="52.9926"/>
      <point x="446.009" y="154.311"/>
      <point x="446.009" y="262.082" type="curve" smooth="yes"/>
      <point x="446.009" y="371.75"/>
      <point x="367.542" y="431"/>
      <point x="295" y="431" type="curve" smooth="yes"/>
      <point x="232" y="431"/>
      <point x="173" y="394"/>
      <point x="145" y="348" type="curve"/>
      <point x="96" y="364" type="line"/>
      <point x="127" y="672" type="line"/>
      <point x="476" y="672" type="line"/>
      <point x="466" y="619" type="line"/>
      <point x="174" y="619" type="line"/>
      <point x="156" y="437" type="line"/>
      <point x="188" y="462"/>
      <point x="233" y="484"/>
      <point x="295" y="484" type="curve" smooth="yes"/>
      <point x="422.5" y="484"/>
      <point x="498.008" y="369.217"/>
      <point x="498.008" y="257.765" type="curve" smooth="yes"/>
      <point x="498.008" y="112.838"/>
      <point x="401.29" y="0"/>
    </contour>
  </outline>
</glyph>
<glyph name="seven" format="1">
  <advance width="501"/>
  <unicode hex="0037"/>
  <outline>
    <contour>
      <point x="154" y="0" type="line"/>
      <point x="107" y="25" type="line"/>
      <point x="410" y="621" type="line"/>
      <point x="74" y="621" type="line"/>
      <point x="64" y="675" type="line"/>
      <point x="496" y="675" type="line"/>
    </contour>
  </outline>
</glyph>
<glyph name="less" format="1">
  <advance width="568"/>
  <unicode hex="003C"/>
  <outline>
    <contour>
      <point x="447" y="-2" type="line"/>
      <point x="72" y="251" type="line"/>
      <point x="465" y="504" type="line"/>
      <point x="494" y="459" type="line"/>
      <point x="170" y="250" type="line"/>
      <point x="477" y="43" type="line"/>
    </contour>
  </outline>
</glyph>
<glyph name="equal" format="1">
  <advance width="505"/>
  <unicode hex="003D"/>
  <outline>
    <contour>
      <point x="420" y="299" type="line"/>
      <point x="77" y="299" type="line"/>
      <point x="87" y="353" type="line"/>
      <point x="430" y="353" type="line"/>
    </contour>
    <contour>
      <point x="420" y="146" type="line"/>
      <point x="77" y="146" type="line"/>
      <point x="87" y="199" type="line"/>
      <point x="430" y="199" type="line"/>
    </contour>
  </outline>
</glyph>
<glyph name="question" format="1">
  <advance width="542"/>
  <unicode hex="003F"/>
  <outline>
    <contour>
      <point x="254" y="713" type="curve" smooth="yes"/>
      <point x="386" y="713"/>
      <point x="475" y="630"/>
      <point x="475" y="507" type="curve" smooth="yes"/>
      <point x="475" y="397"/>
      <point x="391" y="334"/>
      <point x="341" y="289" type="curve" smooth="yes"/>
      <point x="193" y="157" type="line"/>
      <point x="166" y="205" type="line"/>
      <point x="308" y="332" type="line" smooth="yes"/>
      <point x="355" y="374"/>
      <point x="422" y="424"/>
      <point x="422" y="507" type="curve" smooth="yes"/>
      <point x="422" y="580"/>
      <point x="378" y="659"/>
      <point x="254" y="659" type="curve" smooth="yes"/>
      <point x="159" y="659"/>
      <point x="105" y="572"/>
      <point x="99" y="561" type="curve"/>
      <point x="60" y="600" type="line"/>
      <point x="82" y="633"/>
      <point x="147" y="713"/>
    </contour>
    <contour>
      <point x="213" y="92" type="line"/>
      <point x="206" y="10" type="line"/>
      <point x="150" y="0" type="line"/>
      <point x="157" y="82" type="line"/>
    </contour>
  </outline>
</glyph>
<glyph name="at" format="1">
  <advance width="828"/>
  <unicode hex="0040"/>
  <outline>
    <contour>
      <point x="422" y="-42" type="curve" smooth="yes"/>
      <point x="520" y="-42"/>
      <point x="590" y="2"/>
      <point x="620" y="24" type="curve"/>
      <point x="673" y="-1" type="line"/>
      <point x="663" y="-10"/>
      <point x="570" y="-95"/>
      <point x="422" y="-95" type="curve" smooth="yes"/>
      <point x="229" y="-95"/>
      <point x="68" y="62"/>
      <point x="68" y="252" type="curve" smooth="yes"/>
      <point x="68" y="461"/>
      <point x="224" y="617"/>
      <point x="431" y="617" type="curve" smooth="yes"/>
      <point x="618" y="617"/>
      <point x="765" y="474"/>
      <point x="765" y="285" type="curve" smooth="yes"/>
      <point x="765" y="180"/>
      <point x="707" y="94"/>
      <point x="605" y="94" type="curve"/>
      <point x="546" y="95"/>
      <point x="483" y="129"/>
      <point x="466" y="179" type="curve"/>
      <point x="438" y="142"/>
      <point x="398" y="108"/>
      <point x="349" y="108" type="curve" smooth="yes"/>
      <point x="281" y="108"/>
      <point x="234" y="155"/>
      <point x="234" y="237" type="curve" smooth="yes"/>
      <point x="234" y="336"/>
      <point x="306" y="428"/>
      <point x="404" y="428" type="curve" smooth="yes"/>
      <point x="438" y="428"/>
      <point x="473" y="417"/>
      <point x="505" y="393" type="curve"/>
      <point x="473" y="350" type="line"/>
      <point x="450" y="366"/>
      <point x="427" y="375"/>
      <point x="404" y="375" type="curve" smooth="yes"/>
      <point x="337" y="375"/>
      <point x="287" y="306"/>
      <point x="287" y="237" type="curve" smooth="yes"/>
      <point x="287" y="186"/>
      <point x="315" y="161"/>
      <point x="349" y="161" type="curve" smooth="yes"/>
      <point x="404" y="161"/>
      <point x="454" y="255"/>
      <point x="468" y="288" type="curve"/>
      <point x="518" y="270" type="line"/>
      <point x="513" y="254"/>
      <point x="511" y="240"/>
      <point x="511" y="227" type="curve" smooth="yes"/>
      <point x="511" y="183"/>
      <point x="546" y="148"/>
      <point x="606" y="148" type="curve" smooth="yes"/>
      <point x="678" y="148"/>
      <point x="711" y="209"/>
      <point x="711" y="285" type="curve" smooth="yes"/>
      <point x="711" y="423"/>
      <point x="615" y="563"/>
      <point x="431" y="563" type="curve" smooth="yes"/>
      <point x="277" y="563"/>
      <point x="122" y="456"/>
      <point x="122" y="252" type="curve" smooth="yes"/>
      <point x="122" y="60"/>
      <point x="296" y="-42"/>
    </contour>
  </outline>
</glyph>
<glyph name="B" format="1">
  <advance width="602"/>
  <unicode hex="0042"/>
  <outline>
    <contour>
      <point x="65" y="0" type="line"/>
      <point x="65" y="681" type="line"/>
      <point x="276" y="681" type="line" smooth="yes"/>
      <point x="411" y="681"/>
      <point x="492" y="614"/>
      <point x="492" y="504" type="curve" smooth="yes"/>
      <point x="492" y="445"/>
      <point x="458" y="396"/>
      <point x="391" y="369" type="curve"/>
      <point x="455" y="364"/>
      <point x="552" y="303"/>
      <point x="552" y="203" type="curve" smooth="yes"/>
      <point x="552" y="20"/>
      <point x="258" y="0"/>
      <point x="132" y="0" type="curve" smooth="yes"/>
    </contour>
    <contour>
      <point x="119" y="332" type="line"/>
      <point x="119" y="54" type="line"/>
      <point x="125.739" y="53.6791"/>
      <point x="133.835" y="53.4934"/>
      <point x="143.028" y="53.4934" type="curve" smooth="yes"/>
      <point x="248.432" y="53.4934"/>
      <point x="498" y="77.9102"/>
      <point x="498" y="203" type="curve" smooth="yes"/>
      <point x="498" y="312"/>
      <point x="375" y="332"/>
      <point x="303" y="332" type="curve" smooth="yes"/>
    </contour>
    <contour>
      <point x="119" y="627" type="line"/>
      <point x="119" y="385" type="line"/>
      <point x="259" y="385" type="line" smooth="yes"/>
      <point x="337" y="385"/>
      <point x="438" y="409"/>
      <point x="438" y="504" type="curve" smooth="yes"/>
      <point x="438" y="561"/>
      <point x="410" y="627"/>
      <point x="276" y="627" type="curve" smooth="yes"/>
    </contour>
  </outline>
</glyph>
<glyph name="D" format="1">
  <advance width="616"/>
  <unicode hex="0044"/>
  <outline>
    <contour>
      <point x="65" y="1" type="curve"/>
      <point x="65" y="680" type="line"/>
      <point x="91" y="680" type="line" smooth="yes"/>
      <point x="209" y="680"/>
      <point x="295" y="657"/>
      <point x="355" y="628" type="curve" smooth="yes"/>
      <point x="486" y="566"/>
      <point x="556" y="453"/>
      <point x="556" y="301" type="curve" smooth="yes"/>
      <point x="556" y="99"/>
      <point x="430" y="-15"/>
      <point x="207" y="-15" type="curve" smooth="yes"/>
      <point x="169" y="-15"/>
      <point x="105" y="-10"/>
    </contour>
    <contour>
      <point x="119" y="627" type="curve"/>
      <point x="119" y="45" type="line"/>
      <point x="138" y="42"/>
      <point x="170" y="39"/>
      <point x="207" y="39" type="curve" smooth="yes"/>
      <point x="262" y="39"/>
      <point x="341" y="47"/>
      <point x="402" y="86" type="curve" smooth="yes"/>
      <point x="468" y="129"/>
      <point x="502" y="201"/>
      <point x="502" y="301" type="curve" smooth="yes"/>
      <point x="502" y="432"/>
      <point x="445" y="525"/>
      <point x="331" y="579" type="curve" smooth="yes"/>
      <point x="250" y="617"/>
      <point x="160" y="626"/>
    </contour>
  </outline>
</glyph>
<glyph name="E" format="1">
  <advance width="611"/>
  <unicode hex="0045"/>
  <outline>
    <contour>
      <point x="121" y="56" type="line"/>
      <point x="551" y="56" type="line"/>
      <point x="531" y="0" type="line"/>
      <point x="65" y="0" type="line"/>
      <point x="65" y="681" type="line"/>
      <point x="546" y="681" type="line"/>
      <point x="536" y="625" type="line"/>
      <point x="121" y="625" type="line"/>
      <point x="121" y="382" type="line"/>
      <point x="506" y="382" type="line"/>
      <point x="489" y="326" type="line"/>
      <point x="121" y="326" type="line"/>
    </contour>
  </outline>
</glyph>
<glyph name="F" format="1">
  <advance width="505"/>
  <unicode hex="0046"/>
  <outline>
    <contour>
      <point x="495" y="625" type="line"/>
      <point x="116" y="625" type="line"/>
      <point x="116" y="374" type="line"/>
      <point x="454" y="374" type="line"/>
      <point x="444" y="317" type="line"/>
      <point x="116" y="317" type="line"/>
      <point x="116" y="10" type="line"/>
      <point x="60" y="0" type="line"/>
      <point x="60" y="681" type="line"/>
      <point x="505" y="681" type="line"/>
    </contour>
  </outline>
</glyph>
<glyph name="M" format="1">
  <advance width="865"/>
  <unicode hex="004D"/>
  <outline>
    <contour>
      <point x="221" y="557" type="line"/>
      <point x="106" y="10" type="line"/>
      <point x="50" y="0" type="line"/>
      <point x="190" y="671" type="line"/>
      <point x="243" y="681" type="line"/>
      <point x="418" y="65" type="line"/>
      <point x="612" y="671" type="line"/>
      <point x="669" y="681" type="line"/>
      <point x="815" y="10" type="line"/>
      <point x="758" y="0" type="line"/>
      <point x="636" y="573" type="line"/>
      <point x="456" y="10" type="line"/>
      <point x="380" y="0" type="line"/>
    </contour>
  </outline>
</glyph>
<glyph name="N" format="1">
  <advance width="615"/>
  <unicode hex="004E"/>
  <outline>
    <contour>
      <point x="497" y="671" type="line"/>
      <point x="550" y="681" type="line"/>
      <point x="550" y="13" type="line"/>
      <point x="486" y="0" type="line"/>
      <point x="119" y="588" type="line"/>
      <point x="119" y="12" type="line"/>
      <point x="66" y="1" type="line"/>
      <point x="65" y="664" type="line"/>
      <point x="124" y="681" type="line"/>
      <point x="497" y="88" type="line"/>
    </contour>
  </outline>
</glyph>
<glyph name="Q" format="1">
  <advance width="721"/>
  <unicode hex="0051"/>
  <outline>
    <contour>
      <point x="548" y="92" type="curve"/>
      <point x="671" y="12" type="line"/>
      <point x="647" y="-35" type="line"/>
      <point x="506" y="57" type="line"/>
      <point x="455" y="20"/>
      <point x="395" y="-1"/>
      <point x="333" y="-1" type="curve" smooth="yes"/>
      <point x="171" y="-1"/>
      <point x="51" y="140"/>
      <point x="51" y="312" type="curve" smooth="yes"/>
      <point x="51" y="511"/>
      <point x="204" y="679"/>
      <point x="380" y="679" type="curve" smooth="yes"/>
      <point x="543" y="679"/>
      <point x="662" y="536"/>
      <point x="662" y="366" type="curve" smooth="yes"/>
      <point x="662" y="258"/>
      <point x="618" y="160"/>
    </contour>
    <contour>
      <point x="503" y="126" type="line"/>
      <point x="560" y="182"/>
      <point x="602" y="268"/>
      <point x="602" y="359" type="curve" smooth="yes"/>
      <point x="602" y="494"/>
      <point x="506" y="625"/>
      <point x="372" y="625" type="curve" smooth="yes"/>
      <point x="233" y="625"/>
      <point x="112" y="484"/>
      <point x="112" y="312" type="curve" smooth="yes"/>
      <point x="112" y="166"/>
      <point x="206" y="52"/>
      <point x="333" y="52" type="curve" smooth="yes"/>
      <point x="378" y="52"/>
      <point x="422" y="67"/>
      <point x="460" y="92" type="curve"/>
      <point x="347" y="163" type="line"/>
      <point x="397" y="193" type="line"/>
    </contour>
  </outline>
</glyph>
<glyph name="T" format="1">
  <advance width="522"/>
  <unicode hex="0054"/>
  <outline>
    <contour>
      <point x="225" y="0" type="line"/>
      <point x="225" y="625" type="line"/>
      <point x="10" y="625" type="line"/>
      <point x="10" y="681" type="line"/>
      <point x="512" y="681" type="line"/>
      <point x="512" y="625" type="line"/>
      <point x="282" y="625" type="line"/>
      <point x="282" y="10" type="line"/>
    </contour>
  </outline>
</glyph>
<glyph name="U" format="1">
  <advance width="684"/>
  <unicode hex="0055"/>
  <outline>
    <contour>
      <point x="342" y="0" type="curve" smooth="yes"/>
      <point x="105" y="0"/>
      <point x="66" y="197"/>
      <point x="66" y="459" type="curve" smooth="yes"/>
      <point x="66" y="529"/>
      <point x="67" y="640"/>
      <point x="68" y="670" type="curve"/>
      <point x="125" y="680" type="line"/>
      <point x="124" y="658"/>
      <point x="122" y="534"/>
      <point x="122" y="450" type="curve" smooth="yes"/>
      <point x="122" y="241"/>
      <point x="145" y="49"/>
      <point x="342" y="49" type="curve" smooth="yes"/>
      <point x="546" y="49"/>
      <point x="562" y="260"/>
      <point x="562" y="431" type="curve" smooth="yes"/>
      <point x="562" y="514"/>
      <point x="561" y="634"/>
      <point x="560" y="669" type="curve"/>
      <point x="616" y="680" type="line"/>
      <point x="617" y="656"/>
      <point x="618" y="550"/>
      <point x="618" y="476" type="curve" smooth="yes"/>
      <point x="618" y="245"/>
      <point x="598" y="0"/>
    </contour>
  </outline>
</glyph>
<glyph name="V" format="1">
  <advance width="540"/>
  <unicode hex="0056"/>
  <outline>
    <contour>
      <point x="253" y="86" type="line"/>
      <point x="478" y="680" type="line"/>
      <point x="530" y="659" type="line"/>
      <point x="285" y="11" type="line"/>
      <point x="222" y="0" type="line"/>
      <point x="10" y="659" type="line"/>
      <point x="63" y="679" type="line"/>
    </contour>
  </outline>
</glyph>
<glyph name="W" format="1">
  <advance width="878"/>
  <unicode hex="0057"/>
  <outline>
    <contour>
      <point x="868" y="680" type="line"/>
      <point x="640" y="11" type="line"/>
      <point x="580" y="0" type="line"/>
      <point x="435" y="579" type="line"/>
      <point x="265" y="11" type="line"/>
      <point x="207" y="0" type="line"/>
      <point x="10" y="671" type="line"/>
      <point x="64" y="681" type="line"/>
      <point x="235" y="100" type="line"/>
      <point x="405" y="670" type="line"/>
      <point x="464" y="681" type="line"/>
      <point x="611" y="92" type="line"/>
      <point x="807" y="669" type="line"/>
    </contour>
  </outline>
</glyph>
<glyph name="Y" format="1">
  <advance width="628"/>
  <unicode hex="0059"/>
  <outline>
    <contour>
      <point x="322" y="266" type="line"/>
      <point x="566" y="677" type="line"/>
      <point x="628" y="677" type="line"/>
      <point x="226" y="0" type="line"/>
      <point x="164" y="0" type="line"/>
      <point x="290" y="214" type="line"/>
      <point x="20" y="677" type="line"/>
      <point x="82" y="677" type="line"/>
    </contour>
  </outline>
</glyph>
<glyph name="backslash" format="1">
  <advance width="492"/>
  <unicode hex="005C"/>
  <outline>
    <contour>
      <point x="87" y="693" type="line"/>
      <point x="468" y="0" type="line"/>
      <point x="406" y="0" type="line"/>
      <point x="26" y="693" type="line"/>
    </contour>
  </outline>
</glyph>
<glyph name="bracketright" format="1">
  <advance width="315"/>
  <unicode hex="005D"/>
  <outline>
    <contour>
      <point x="87" y="805" type="line"/>
      <point x="254" y="805" type="line"/>
      <point x="254" y="-124" type="line"/>
      <point x="61" y="-124" type="line"/>
      <point x="71" y="-70" type="line"/>
      <point x="200" y="-70" type="line"/>
      <point x="200" y="751" type="line"/>
      <point x="76" y="751" type="line"/>
    </contour>
  </outline>
</glyph>
<glyph name="underscore" format="1">
  <advance width="476"/>
  <unicode hex="005F"/>
  <outline>
    <contour>
      <point x="478" y="-54" type="line"/>
      <point x="-12" y="-54" type="line"/>
      <point x="-2" y="0" type="line"/>
      <point x="488" y="0" type="line"/>
    </contour>
  </outline>
</glyph>
<glyph name="grave" format="1">
  <advance width="500"/>
  <unicode hex="0060"/>
  <outline>
    <contour>
      <point x="343" y="754" type="line"/>
      <point x="297" y="726" type="line"/>
      <point x="157" y="866" type="line"/>
      <point x="217" y="900" type="line"/>
    </contour>
  </outline>
</glyph>
<glyph name="b" format="1">
  <advance width="528"/>
  <unicode hex="0062"/>
  <outline>
    <contour>
      <point x="320" y="490" type="curve" smooth="yes"/>
      <point x="430" y="490"/>
      <point x="478" y="372"/>
      <point x="478" y="268" type="curve" smooth="yes"/>
      <point x="478" y="215"/>
      <point x="474" y="1"/>
      <point x="259" y="1" type="curve" smooth="yes"/>
      <point x="207" y="1"/>
      <point x="152" y="16"/>
      <point x="121" y="29" type="curve"/>
      <point x="121" y="0" type="line"/>
      <point x="65" y="10" type="line"/>
      <point x="65" y="681" type="line"/>
      <point x="121" y="692" type="line"/>
      <point x="121" y="409" type="line"/>
      <point x="156" y="459"/>
      <point x="229" y="490"/>
    </contour>
    <contour>
      <point x="251" y="55" type="curve" smooth="yes"/>
      <point x="377" y="55"/>
      <point x="425" y="147"/>
      <point x="425" y="268" type="curve" smooth="yes"/>
      <point x="425" y="329"/>
      <point x="401" y="434"/>
      <point x="307" y="434" type="curve" smooth="yes"/>
      <point x="200" y="434"/>
      <point x="121" y="370"/>
      <point x="121" y="291" type="curve" smooth="yes"/>
      <point x="121" y="82" type="line"/>
      <point x="139" y="73"/>
      <point x="194" y="55"/>
    </contour>
  </outline>
</glyph>
<glyph name="c" format="1">
  <advance width="507"/>
  <unicode hex="0063"/>
  <outline>
    <contour>
      <point x="277" y="52" type="curve" smooth="yes"/>
      <point x="339" y="55"/>
      <point x="391" y="88"/>
      <point x="417" y="137" type="curve"/>
      <point x="457" y="97" type="line"/>
      <point x="420" y="41"/>
      <point x="355" y="3"/>
      <point x="279" y="0" type="curve" smooth="yes"/>
      <point x="275.529" y="-0.174991"/>
      <point x="272.067" y="-0.261519"/>
      <point x="268.616" y="-0.261519" type="curve" smooth="yes"/>
      <point x="153.735" y="-0.261519"/>
      <point x="51" y="95.6165"/>
      <point x="51" y="216" type="curve" smooth="yes"/>
      <point x="51" y="329"/>
      <point x="138" y="502"/>
      <point x="274" y="502" type="curve" smooth="yes"/>
      <point x="338" y="502"/>
      <point x="391" y="477"/>
      <point x="426" y="430" type="curve"/>
      <point x="386" y="391" type="line"/>
      <point x="363" y="429"/>
      <point x="322" y="450"/>
      <point x="276" y="450" type="curve" smooth="yes"/>
      <point x="177" y="450"/>
      <point x="104" y="309"/>
      <point x="104" y="218" type="curve" smooth="yes"/>
      <point x="104" y="82.4715"/>
      <point x="221.143" y="51.9028"/>
      <point x="272.172" y="51.9028" type="curve" smooth="yes"/>
      <point x="273.855" y="51.9028"/>
      <point x="275.467" y="51.9361"/>
    </contour>
  </outline>
</glyph>
<glyph name="i" format="1">
  <advance width="193"/>
  <unicode hex="0069"/>
  <outline>
    <contour>
      <point x="65" y="491" type="line"/>
      <point x="124" y="500" type="line"/>
      <point x="124" y="10" type="line"/>
      <point x="65" y="0" type="line"/>
    </contour>
    <contour>
      <point x="128" y="689" type="line"/>
      <point x="122" y="607" type="line"/>
      <point x="65" y="597" type="line"/>
      <point x="72" y="679" type="line"/>
    </contour>
  </outline>
</glyph>
<glyph name="j" format="1">
  <advance width="313"/>
  <unicode hex="006A"/>
  <outline>
    <contour>
      <point x="247" y="697" type="line"/>
      <point x="240" y="615" type="line"/>
      <point x="184" y="605" type="line"/>
      <point x="190" y="687" type="line"/>
    </contour>
    <contour>
      <point x="-40" y="-10" type="curve"/>
      <point x="16" y="2" type="line"/>
      <point x="33" y="-38"/>
      <point x="78" y="-129"/>
      <point x="126" y="-129" type="curve" smooth="yes"/>
      <point x="171" y="-129"/>
      <point x="191" y="-73"/>
      <point x="191" y="-5" type="curve" smooth="yes"/>
      <point x="191" y="12"/>
      <point x="188" y="239"/>
      <point x="184" y="502" type="curve"/>
      <point x="241" y="513" type="line"/>
      <point x="245" y="247"/>
      <point x="248" y="17"/>
      <point x="248" y="0" type="curve" smooth="yes"/>
      <point x="248" y="-72"/>
      <point x="220" y="-180"/>
      <point x="126" y="-180" type="curve" smooth="yes"/>
      <point x="27" y="-180"/>
      <point x="-33" y="-27"/>
    </contour>
  </outline>
</glyph>
<glyph name="m" format="1">
  <advance width="817"/>
  <unicode hex="006D"/>
  <outline>
    <contour>
      <point x="133" y="306" type="curve" smooth="yes"/>
      <point x="122" y="288"/>
      <point x="121" y="264"/>
      <point x="121" y="264" type="curve"/>
      <point x="121" y="10" type="line"/>
      <point x="65" y="0" type="line"/>
      <point x="65" y="482" type="line"/>
      <point x="121" y="492" type="line"/>
      <point x="121" y="362" type="line"/>
      <point x="174" y="435"/>
      <point x="245" y="511"/>
      <point x="313" y="511" type="curve" smooth="yes"/>
      <point x="363" y="511"/>
      <point x="422" y="490"/>
      <point x="442" y="400" type="curve"/>
      <point x="489" y="467"/>
      <point x="561" y="511"/>
      <point x="615" y="511" type="curve" smooth="yes"/>
      <point x="677" y="511"/>
      <point x="752" y="479"/>
      <point x="752" y="326" type="curve" smooth="yes"/>
      <point x="752" y="10" type="line"/>
      <point x="695" y="0" type="line"/>
      <point x="695" y="333" type="line" smooth="yes"/>
      <point x="695" y="449"/>
      <point x="649" y="462"/>
      <point x="615" y="462" type="curve" smooth="yes"/>
      <point x="560" y="462"/>
      <point x="449" y="396"/>
      <point x="449" y="282" type="curve" smooth="yes"/>
      <point x="449" y="10" type="line"/>
      <point x="393" y="0" type="line"/>
      <point x="393" y="333" type="line" smooth="yes"/>
      <point x="393" y="449"/>
      <point x="347" y="462"/>
      <point x="313" y="462" type="curve" smooth="yes"/>
      <point x="271" y="462"/>
      <point x="200" y="415"/>
    </contour>
  </outline>
</glyph>
<glyph name="p" format="1">
  <advance width="518"/>
  <unicode hex="0070"/>
  <outline>
    <contour>
      <point x="308" y="496" type="curve"/>
      <point x="418" y="492"/>
      <point x="468" y="374"/>
      <point x="468" y="270" type="curve" smooth="yes"/>
      <point x="468" y="138"/>
      <point x="410" y="7"/>
      <point x="253" y="7" type="curve" smooth="yes"/>
      <point x="201" y="7"/>
      <point x="152" y="22"/>
      <point x="121" y="35" type="curve"/>
      <point x="121" y="-183" type="line"/>
      <point x="65" y="-193" type="line"/>
      <point x="65" y="488" type="line"/>
      <point x="121" y="499" type="line"/>
      <point x="121" y="428" type="line"/>
      <point x="162" y="465"/>
      <point x="220" y="496"/>
    </contour>
    <contour>
      <point x="256" y="63" type="curve" smooth="yes"/>
      <point x="375" y="63"/>
      <point x="419" y="159"/>
      <point x="419" y="270" type="curve" smooth="yes"/>
      <point x="419" y="340"/>
      <point x="394" y="447"/>
      <point x="298" y="447" type="curve" smooth="yes"/>
      <point x="195" y="447"/>
      <point x="138" y="385"/>
      <point x="121" y="360" type="curve"/>
      <point x="121" y="97" type="line"/>
      <point x="140" y="88"/>
      <point x="197" y="63"/>
    </contour>
  </outline>
</glyph>
<glyph name="t" format="1">
  <advance width="373"/>
  <unicode hex="0074"/>
  <outline>
    <contour>
      <point x="353" y="502" type="line"/>
      <point x="353" y="446" type="line"/>
      <point x="215" y="446" type="line"/>
      <point x="215" y="10" type="line"/>
      <point x="158" y="0" type="line"/>
      <point x="158" y="446" type="line"/>
      <point x="20" y="446" type="line"/>
      <point x="20" y="502" type="line"/>
      <point x="158" y="502" type="line"/>
      <point x="158" y="661" type="line"/>
      <point x="215" y="671" type="line"/>
      <point x="215" y="502" type="line"/>
    </contour>
  </outline>
</glyph>
<glyph name="v" format="1">
  <advance width="447"/>
  <unicode hex="0076"/>
  <outline>
    <contour>
      <point x="437" y="480" type="line"/>
      <point x="255" y="12" type="line"/>
      <point x="197" y="0" type="line"/>
      <point x="10" y="479" type="line"/>
      <point x="63" y="500" type="line"/>
      <point x="223" y="77" type="line"/>
      <point x="385" y="500" type="line"/>
    </contour>
  </outline>
</glyph>
<glyph name="w" format="1">
  <advance width="653"/>
  <unicode hex="0077"/>
  <outline>
    <contour>
      <point x="633" y="496" type="line"/>
      <point x="481" y="12" type="line"/>
      <point x="423" y="0" type="line"/>
      <point x="330" y="388" type="line"/>
      <point x="198" y="12" type="line"/>
      <point x="138" y="0" type="line"/>
      <point x="40" y="485" type="line"/>
      <point x="94" y="497" type="line"/>
      <point x="174" y="91" type="line"/>
      <point x="305" y="485" type="line"/>
      <point x="361" y="495" type="line"/>
      <point x="454" y="88" type="line"/>
      <point x="572" y="485" type="line"/>
    </contour>
  </outline>
</glyph>
<glyph name="x" format="1">
  <advance width="471"/>
  <unicode hex="0078"/>
  <outline>
    <contour>
      <point x="428" y="28" type="line"/>
      <point x="383" y="-4" type="line"/>
      <point x="231" y="213" type="line"/>
      <point x="51" y="-4" type="line"/>
      <point x="9" y="32" type="line"/>
      <point x="199" y="259" type="line"/>
      <point x="51" y="472" type="line"/>
      <point x="95" y="504" type="line"/>
      <point x="234" y="302" type="line"/>
      <point x="403" y="504" type="line"/>
      <point x="444" y="468" type="line"/>
      <point x="268" y="257" type="line"/>
    </contour>
  </outline>
</glyph>
<glyph name="z" format="1">
  <advance width="453"/>
  <unicode hex="007A"/>
  <outline>
    <contour>
      <point x="406" y="0" type="line"/>
      <point x="52" y="0" type="line"/>
      <point x="30" y="46" type="line"/>
      <point x="348" y="446" type="line"/>
      <point x="52" y="446" type="line"/>
      <point x="62" y="502" type="line"/>
      <point x="401" y="502" type="line"/>
      <point x="423" y="457" type="line"/>
      <point x="105" y="56" type="line"/>
      <point x="416" y="56" type="line"/>
    </contour>
  </outline>
</glyph>
<glyph name="bar" format="1">
  <advance width="255"/>
  <unicode hex="007C"/>
  <outline>
    <contour>
      <point x="155" y="-61" type="line"/>
      <point x="101" y="-71" type="line"/>
      <point x="101" y="745" type="line"/>
      <point x="155" y="755" type="line"/>
    </contour>
  </outline>
</glyph>
<glyph name="braceright" format="1">
  <advance width="374"/>
  <unicode hex="007D"/>
  <outline>
    <contour>
      <point x="295" y="310" type="line"/>
      <point x="254" y="293"/>
      <point x="228" y="260"/>
      <point x="228" y="212" type="curve" smooth="yes"/>
      <point x="228" y="23" type="line" smooth="yes"/>
      <point x="228" y="-91"/>
      <point x="115" y="-124"/>
      <point x="55" y="-125" type="curve"/>
      <point x="57" y="-71" type="line"/>
      <point x="122" y="-68"/>
      <point x="174" y="-34"/>
      <point x="174" y="23" type="curve" smooth="yes"/>
      <point x="174" y="211" type="line" smooth="yes"/>
      <point x="174" y="243"/>
      <point x="182" y="295"/>
      <point x="233" y="335" type="curve"/>
      <point x="200" y="360"/>
      <point x="174" y="402"/>
      <point x="174" y="459" type="curve" smooth="yes"/>
      <point x="174" y="662" type="line" smooth="yes"/>
      <point x="174" y="714"/>
      <point x="134" y="749"/>
      <point x="54" y="756" type="curve"/>
      <point x="56" y="810" type="line"/>
      <point x="116" y="808"/>
      <point x="228" y="775"/>
      <point x="228" y="662" type="curve" smooth="yes"/>
      <point x="228" y="451" type="line" smooth="yes"/>
      <point x="228" y="410"/>
      <point x="257" y="374"/>
      <point x="295" y="360" type="curve"/>
    </contour>
  </outline>
</glyph>
<glyph name="asciitilde" format="1">
  <advance width="645"/>
  <unicode hex="007E"/>
  <outline>
    <contour>
      <point x="527" y="332" type="curve"/>
      <point x="577" y="308" type="line"/>
      <point x="565" y="271"/>
      <point x="522" y="150"/>
      <point x="420" y="150" type="curve" smooth="yes"/>
      <point x="358" y="150"/>
      <point x="325" y="195"/>
      <point x="295" y="236" type="curve" smooth="yes"/>
      <point x="267" y="275"/>
      <point x="247" y="298"/>
      <point x="215" y="298" type="curve" smooth="yes"/>
      <point x="144" y="298"/>
      <point x="118" y="199"/>
      <point x="114" y="184" type="curve"/>
      <point x="65" y="208" type="line"/>
      <point x="83" y="273"/>
      <point x="132" y="352"/>
      <point x="215" y="352" type="curve" smooth="yes"/>
      <point x="277" y="352"/>
      <point x="310" y="307"/>
      <point x="339" y="267" type="curve" smooth="yes"/>
      <point x="368" y="228"/>
      <point x="388" y="204"/>
      <point x="420" y="204" type="curve" smooth="yes"/>
      <point x="463" y="204"/>
      <point x="508" y="258"/>
    </contour>
  </outline>
</glyph>
<glyph name="currency" format="1">
  <advance width="500"/>
  <unicode hex="00A4"/>
  <outline>
    <contour>
      <point x="409" y="251" type="curve" smooth="yes"/>
      <point x="409" y="217"/>
      <point x="398" y="185"/>
      <point x="380" y="159" type="curve"/>
      <point x="450" y="89" type="line"/>
      <point x="414" y="53" type="line"/>
      <point x="344" y="122" type="line"/>
      <point x="318" y="103"/>
      <point x="285" y="91"/>
      <point x="250" y="91" type="curve" smooth="yes"/>
      <point x="214" y="91"/>
      <point x="182" y="103"/>
      <point x="155" y="122" type="curve"/>
      <point x="85" y="52" type="line"/>
      <point x="49" y="88" type="line"/>
      <point x="120" y="159" type="line"/>
      <point x="101" y="185"/>
      <point x="90" y="217"/>
      <point x="90" y="251" type="curve" smooth="yes"/>
      <point x="90" y="286"/>
      <point x="102" y="319"/>
      <point x="121" y="345" type="curve"/>
      <point x="49" y="418" type="line"/>
      <point x="85" y="454" type="line"/>
      <point x="158" y="381" type="line"/>
      <point x="184" y="400"/>
      <point x="216" y="410"/>
      <point x="250" y="410" type="curve" smooth="yes"/>
      <point x="284" y="410"/>
      <point x="316" y="400"/>
      <point x="342" y="381" type="curve"/>
      <point x="414" y="454" type="line"/>
      <point x="450" y="418" type="line"/>
      <point x="378" y="345" type="line"/>
      <point x="398" y="319"/>
      <point x="409" y="286"/>
    </contour>
    <contour>
      <point x="250" y="142" type="curve" smooth="yes"/>
      <point x="310" y="142"/>
      <point x="358" y="191"/>
      <point x="358" y="251" type="curve" smooth="yes"/>
      <point x="358" y="311"/>
      <point x="310" y="359"/>
      <point x="250" y="359" type="curve" smooth="yes"/>
      <point x="190" y="359"/>
      <point x="141" y="311"/>
      <point x="141" y="251" type="curve" smooth="yes"/>
      <point x="141" y="191"/>
      <point x="190" y="142"/>
    </contour>
  </outline>
</glyph>
<glyph name="yen" format="1">
  <advance width="585"/>
  <unicode hex="00A5"/>
  <outline>
    <contour>
      <point x="257" y="288" type="line"/>
      <point x="107" y="288" type="line"/>
      <point x="117" y="341" type="line"/>
      <point x="228" y="341" type="line"/>
      <point x="64" y="689" type="line"/>
      <point x="123" y="689" type="line"/>
      <point x="285" y="348" type="line"/>
      <point x="457" y="689" type="line"/>
      <point x="517" y="689" type="line"/>
      <point x="341" y="341" type="line"/>
      <point x="460" y="341" type="line"/>
      <point x="450" y="288" type="line"/>
      <point x="311" y="288" type="line"/>
      <point x="311" y="188" type="line"/>
      <point x="460" y="188" type="line"/>
      <point x="450" y="134" type="line"/>
      <point x="311" y="134" type="line"/>
      <point x="311" y="10" type="line"/>
      <point x="257" y="0" type="line"/>
      <point x="257" y="134" type="line"/>
      <point x="107" y="134" type="line"/>
      <point x="117" y="188" type="line"/>
      <point x="257" y="188" type="line"/>
    </contour>
  </outline>
</glyph>
<glyph name="ordfeminine" format="1">
  <advance width="250"/>
  <unicode hex="00AA"/>
  <outline>
    <contour>
      <point x="248" y="649" type="curve"/>
      <point x="249" y="362" type="line"/>
      <point x="199" y="352" type="line"/>
      <point x="199" y="380" type="line"/>
      <point x="171" y="365"/>
      <point x="145" y="358"/>
      <point x="121" y="358" type="curve" smooth="yes"/>
      <point x="50" y="358"/>
      <point x="0" y="416"/>
      <point x="0" y="495" type="curve" smooth="yes"/>
      <point x="0" y="590"/>
      <point x="60" y="677"/>
      <point x="150" y="677" type="curve" smooth="yes"/>
      <point x="174" y="677"/>
      <point x="217" y="669"/>
    </contour>
    <contour>
      <point x="150" y="628" type="curve" smooth="yes"/>
      <point x="69" y="628"/>
      <point x="50" y="527"/>
      <point x="50" y="496" type="curve" smooth="yes"/>
      <point x="50" y="442"/>
      <point x="78" y="407"/>
      <point x="119" y="407" type="curve" smooth="yes"/>
      <point x="151" y="407"/>
      <point x="185" y="428"/>
      <point x="198" y="438" type="curve"/>
      <point x="201" y="618" type="line"/>
      <point x="181" y="624"/>
      <point x="172" y="628"/>
    </contour>
  </outline>
</glyph>
<glyph name="uni00AD" format="1">
  <advance width="442"/>
  <unicode hex="00AD"/>
  <outline>
    <contour>
      <point x="373" y="281" type="line"/>
      <point x="363" y="227" type="line"/>
      <point x="71" y="227" type="line"/>
      <point x="81" y="281" type="line"/>
    </contour>
  </outline>
</glyph>
<glyph name="degree" format="1">
  <advance width="267"/>
  <unicode hex="00B0"/>
  <outline>
    <contour>
      <point x="133" y="500" type="curve" smooth="yes"/>
      <point x="60" y="500"/>
      <point x="0" y="560"/>
      <point x="0" y="633" type="curve" smooth="yes"/>
      <point x="0" y="707"/>
      <point x="60" y="766"/>
      <point x="133" y="766" type="curve" smooth="yes"/>
      <point x="206" y="766"/>
      <point x="266" y="707"/>
      <point x="266" y="633" type="curve" smooth="yes"/>
      <point x="266" y="560"/>
      <point x="206" y="500"/>
    </contour>
    <contour>
      <point x="133" y="710" type="curve" smooth="yes"/>
      <point x="91" y="710"/>
      <point x="56" y="675"/>
      <point x="56" y="633" type="curve" smooth="yes"/>
      <point x="56" y="591"/>
      <point x="91" y="556"/>
      <point x="133" y="556" type="curve" smooth="yes"/>
      <point x="175" y="556"/>
      <point x="210" y="591"/>
      <point x="210" y="633" type="curve" smooth="yes"/>
      <point x="210" y="675"/>
      <point x="175" y="710"/>
    </contour>
  </outline>
</glyph>
<glyph name="plusminus" format="1">
  <advance width="435"/>
  <unicode hex="00B1"/>
  <outline>
    <contour>
      <point x="381" y="324" type="line"/>
      <point x="370" y="270" type="line"/>
      <point x="244" y="270" type="line"/>
      <point x="244" y="144" type="line"/>
      <point x="190" y="134" type="line"/>
      <point x="190" y="270" type="line"/>
      <point x="54" y="270" type="line"/>
      <point x="64" y="324" type="line"/>
      <point x="190" y="324" type="line"/>
      <point x="190" y="445" type="line"/>
      <point x="244" y="456" type="line"/>
      <point x="244" y="324" type="line"/>
    </contour>
    <contour>
      <point x="67" y="0" type="line"/>
      <point x="77" y="52" type="line"/>
      <point x="366" y="52" type="line"/>
      <point x="356" y="0" type="line"/>
    </contour>
  </outline>
</glyph>
<glyph name="twosuperior" format="1">
  <advance width="237"/>
  <unicode hex="00B2"/>
  <outline>
    <contour>
      <point x="32" y="718" type="curve"/>
      <point x="0" y="754" type="line"/>
      <point x="23" y="789"/>
      <point x="69" y="821"/>
      <point x="120" y="821" type="curve" smooth="yes"/>
      <point x="205" y="821"/>
      <point x="230" y="761"/>
      <point x="230" y="724" type="curve" smooth="yes"/>
      <point x="230" y="667"/>
      <point x="171" y="617"/>
      <point x="125" y="588" type="curve" smooth="yes"/>
      <point x="77" y="557"/>
      <point x="55" y="534"/>
      <point x="49" y="484" type="curve"/>
      <point x="237" y="484" type="line"/>
      <point x="229" y="439" type="line"/>
      <point x="3" y="439" type="line"/>
      <point x="3" y="461" type="line" smooth="yes"/>
      <point x="3" y="543"/>
      <point x="34" y="581"/>
      <point x="100" y="625" type="curve" smooth="yes"/>
      <point x="159" y="664"/>
      <point x="185" y="694"/>
      <point x="185" y="724" type="curve" smooth="yes"/>
      <point x="185" y="756"/>
      <point x="153" y="775"/>
      <point x="120" y="775" type="curve" smooth="yes"/>
      <point x="91" y="775"/>
      <point x="57" y="760"/>
    </contour>
  </outline>
</glyph>
<glyph name="mu" format="1">
  <advance width="515"/>
  <unicode hex="00B5"/>
  <outline>
    <contour>
      <point x="65" y="292" type="curve" smooth="yes"/>
      <point x="65" y="374"/>
      <point x="77" y="464"/>
      <point x="81" y="495" type="curve"/>
      <point x="136" y="505" type="line"/>
      <point x="133" y="489"/>
      <point x="119" y="375"/>
      <point x="119" y="340" type="curve" smooth="yes"/>
      <point x="119" y="76"/>
      <point x="146" y="44"/>
      <point x="218" y="44" type="curve" smooth="yes"/>
      <point x="287" y="44"/>
      <point x="358" y="93"/>
      <point x="379" y="117" type="curve" smooth="yes"/>
      <point x="386" y="125"/>
      <point x="392" y="145"/>
      <point x="392" y="160" type="curve" smooth="yes"/>
      <point x="397" y="495" type="line"/>
      <point x="450" y="505" type="line"/>
      <point x="450" y="11" type="line"/>
      <point x="388" y="1" type="line"/>
      <point x="388" y="75" type="line"/>
      <point x="363" y="37"/>
      <point x="295" y="-5"/>
      <point x="217" y="-5" type="curve" smooth="yes"/>
      <point x="188" y="-5"/>
      <point x="157" y="1"/>
      <point x="136" y="13" type="curve"/>
      <point x="154" y="-174" type="line"/>
      <point x="99" y="-164" type="line"/>
      <point x="94" y="-128"/>
      <point x="65" y="189"/>
    </contour>
  </outline>
</glyph>
<glyph name="periodcentered" format="1">
  <advance width="500"/>
  <unicode hex="00B7"/>
  <outline>
    <contour>
      <point x="291" y="299" type="line"/>
      <point x="283" y="217" type="line"/>
      <point x="209" y="207" type="line"/>
      <point x="218" y="289" type="line"/>
    </contour>
  </outline>
</glyph>
<glyph name="cedilla" format="1">
  <advance width="500"/>
  <unicode hex="00B8"/>
  <outline>
    <contour>
      <point x="231" y="29" type="line"/>
      <point x="229" y="-19" type="line"/>
      <point x="233" y="-19" type="line" smooth="yes"/>
      <point x="289" y="-19"/>
      <point x="331" y="-55"/>
      <point x="331" y="-110" type="curve" smooth="yes"/>
      <point x="331" y="-160"/>
      <point x="290" y="-201"/>
      <point x="240" y="-201" type="curve" smooth="yes"/>
      <point x="211" y="-201"/>
      <point x="185" y="-188"/>
      <point x="168" y="-166" type="curve"/>
      <point x="198" y="-136" type="line"/>
      <point x="203" y="-149"/>
      <point x="224" y="-159"/>
      <point x="240" y="-159" type="curve" smooth="yes"/>
      <point x="267" y="-159"/>
      <point x="289" y="-137"/>
      <point x="289" y="-110" type="curve" smooth="yes"/>
      <point x="289" y="-83"/>
      <point x="267" y="-61"/>
      <point x="240" y="-61" type="curve" smooth="yes"/>
      <point x="227" y="-61"/>
      <point x="213" y="-67"/>
      <point x="208" y="-72" type="curve"/>
      <point x="179" y="-42" type="line"/>
      <point x="204" y="27" type="line"/>
    </contour>
  </outline>
</glyph>
<glyph name="ordmasculine" format="1">
  <advance width="285"/>
  <unicode hex="00BA"/>
  <outline>
    <contour>
      <point x="133" y="356" type="curve" smooth="yes"/>
      <point x="53" y="356"/>
      <point x="0" y="426"/>
      <point x="0" y="505" type="curve" smooth="yes"/>
      <point x="0" y="601"/>
      <point x="68" y="681"/>
      <point x="152" y="681" type="curve" smooth="yes"/>
      <point x="226" y="681"/>
      <point x="284" y="611"/>
      <point x="284" y="531" type="curve" smooth="yes"/>
      <point x="284" y="437"/>
      <point x="215" y="356"/>
    </contour>
    <contour>
      <point x="149" y="634" type="curve" smooth="yes"/>
      <point x="97" y="634"/>
      <point x="52" y="575"/>
      <point x="52" y="505" type="curve" smooth="yes"/>
      <point x="52" y="447"/>
      <point x="87" y="402"/>
      <point x="133" y="402" type="curve" smooth="yes"/>
      <point x="184" y="402"/>
      <point x="232" y="460"/>
      <point x="232" y="527" type="curve" smooth="yes"/>
      <point x="232" y="579"/>
      <point x="198" y="634"/>
    </contour>
  </outline>
</glyph>
<glyph name="Acircumflex" format="1">
  <advance width="623"/>
  <unicode hex="00C2"/>
  <outline>
    <contour>
      <point x="360" y="680" type="line"/>
      <point x="573" y="33" type="line"/>
      <point x="526" y="1" type="line"/>
      <point x="440" y="261" type="line"/>
      <point x="176" y="206" type="line"/>
      <point x="99" y="0" type="line"/>
      <point x="50" y="26" type="line"/>
      <point x="112" y="192" type="line"/>
      <point x="71" y="184" type="line"/>
      <point x="60" y="238" type="line"/>
      <point x="135" y="253" type="line"/>
      <point x="290" y="667" type="line"/>
    </contour>
    <contour>
      <point x="199" y="267" type="line"/>
      <point x="423" y="313" type="line"/>
      <point x="326" y="607" type="line"/>
    </contour>
    <contour>
      <point x="218" y="718" type="line"/>
      <point x="185" y="760" type="line"/>
      <point x="335" y="881" type="line"/>
      <point x="464" y="759" type="line"/>
      <point x="428" y="719" type="line"/>
      <point x="332" y="806" type="line"/>
    </contour>
  </outline>
</glyph>
<glyph name="Aring" format="1">
  <advance width="623"/>
  <unicode hex="00C5"/>
  <outline>
    <contour>
      <point x="312" y="721" type="curve" smooth="yes"/>
      <point x="245" y="721"/>
      <point x="198" y="768"/>
      <point x="198" y="823" type="curve" smooth="yes"/>
      <point x="198" y="886"/>
      <point x="258" y="940"/>
      <point x="332" y="940" type="curve" smooth="yes"/>
      <point x="402" y="940"/>
      <point x="446" y="888"/>
      <point x="446" y="837" type="curve" smooth="yes"/>
      <point x="446" y="763"/>
      <point x="375" y="721"/>
    </contour>
    <contour>
      <point x="329" y="893" type="curve" smooth="yes"/>
      <point x="294" y="893"/>
      <point x="240" y="868"/>
      <point x="240" y="823" type="curve" smooth="yes"/>
      <point x="240" y="790"/>
      <point x="273" y="767"/>
      <point x="314" y="767" type="curve" smooth="yes"/>
      <point x="356" y="767"/>
      <point x="405" y="796"/>
      <point x="405" y="835" type="curve" smooth="yes"/>
      <point x="405" y="866"/>
      <point x="370" y="893"/>
    </contour>
    <contour>
      <point x="360" y="680" type="line"/>
      <point x="573" y="33" type="line"/>
      <point x="526" y="1" type="line"/>
      <point x="440" y="261" type="line"/>
      <point x="176" y="206" type="line"/>
      <point x="99" y="0" type="line"/>
      <point x="50" y="26" type="line"/>
      <point x="112" y="192" type="line"/>
      <point x="71" y="184" type="line"/>
      <point x="60" y="238" type="line"/>
      <point x="135" y="253" type="line"/>
      <point x="290" y="667" type="line"/>
    </contour>
    <contour>
      <point x="199" y="267" type="line"/>
      <point x="423" y="313" type="line"/>
      <point x="326" y="607" type="line"/>
    </contour>
  </outline>
</glyph>
<glyph name="AE" format="1">
  <advance width="1049"/>
  <unicode hex="00C6"/>
  <outline>
    <contour>
      <point x="559" y="56" type="line"/>
      <point x="989" y="56" type="line"/>
      <point x="969" y="0" type="line"/>
      <point x="503" y="0" type="line"/>
      <point x="503" y="307" type="line"/>
      <point x="282" y="261" type="line"/>
      <point x="98" y="0" type="line"/>
      <point x="50" y="26" type="line"/>
      <point x="205" y="246" type="line"/>
      <point x="166" y="237" type="line"/>
      <point x="155" y="290" type="line"/>
      <point x="251" y="310" type="line"/>
      <point x="513" y="681" type="line"/>
      <point x="984" y="681" type="line"/>
      <point x="974" y="625" type="line"/>
      <point x="559" y="625" type="line"/>
      <point x="559" y="382" type="line"/>
      <point x="944" y="382" type="line"/>
      <point x="927" y="326" type="line"/>
      <point x="559" y="326" type="line"/>
    </contour>
    <contour>
      <point x="503" y="362" type="line"/>
      <point x="503" y="572" type="line"/>
      <point x="329" y="326" type="line"/>
    </contour>
  </outline>
</glyph>
<glyph name="Ccedilla" format="1">
  <advance width="631"/>
  <unicode hex="00C7"/>
  <outline>
    <contour>
      <point x="344" y="-159" type="curve" smooth="yes"/>
      <point x="371" y="-159"/>
      <point x="393" y="-137"/>
      <point x="393" y="-110" type="curve" smooth="yes"/>
      <point x="393" y="-83"/>
      <point x="371" y="-61"/>
      <point x="344" y="-61" type="curve" smooth="yes"/>
      <point x="331" y="-61"/>
      <point x="317" y="-67"/>
      <point x="312" y="-72" type="curve"/>
      <point x="283" y="-42" type="line"/>
      <point x="298" y="1" type="line"/>
      <point x="160" y="18"/>
      <point x="51" y="138"/>
      <point x="51" y="291" type="curve" smooth="yes"/>
      <point x="51" y="452"/>
      <point x="169" y="681"/>
      <point x="346" y="681" type="curve" smooth="yes"/>
      <point x="402" y="681"/>
      <point x="453" y="665"/>
      <point x="493" y="635" type="curve"/>
      <point x="493" y="658" type="line"/>
      <point x="539" y="658" type="line"/>
      <point x="539" y="539" type="line"/>
      <point x="493" y="539" type="line"/>
      <point x="493" y="564" type="line"/>
      <point x="466" y="594"/>
      <point x="421" y="628"/>
      <point x="340" y="628" type="curve" smooth="yes"/>
      <point x="209" y="628"/>
      <point x="103" y="426"/>
      <point x="103" y="293" type="curve" smooth="yes"/>
      <point x="103" y="161"/>
      <point x="206" y="52"/>
      <point x="334" y="52" type="curve" smooth="yes"/>
      <point x="428" y="52"/>
      <point x="503" y="94"/>
      <point x="542" y="170" type="curve"/>
      <point x="581" y="131" type="line"/>
      <point x="531" y="49"/>
      <point x="437" y="-1"/>
      <point x="333" y="-1" type="curve"/>
      <point x="333" y="-19" type="line"/>
      <point x="337" y="-19" type="line" smooth="yes"/>
      <point x="393" y="-19"/>
      <point x="435" y="-55"/>
      <point x="435" y="-110" type="curve" smooth="yes"/>
      <point x="435" y="-160"/>
      <point x="394" y="-201"/>
      <point x="344" y="-201" type="curve" smooth="yes"/>
      <point x="315" y="-201"/>
      <point x="289" y="-188"/>
      <point x="272" y="-166" type="curve"/>
      <point x="302" y="-136" type="line"/>
      <point x="307" y="-149"/>
      <point x="328" y="-159"/>
    </contour>
  </outline>
</glyph>
<glyph name="Ecircumflex" format="1">
  <advance width="611"/>
  <unicode hex="00CA"/>
  <outline>
    <contour>
      <point x="121" y="56" type="line"/>
      <point x="551" y="56" type="line"/>
      <point x="531" y="0" type="line"/>
      <point x="65" y="0" type="line"/>
      <point x="65" y="681" type="line"/>
      <point x="546" y="681" type="line"/>
      <point x="536" y="625" type="line"/>
      <point x="121" y="625" type="line"/>
      <point x="121" y="382" type="line"/>
      <point x="506" y="382" type="line"/>
      <point x="489" y="326" type="line"/>
      <point x="121" y="326" type="line"/>
    </contour>
    <contour>
      <point x="200" y="718" type="line"/>
      <point x="167" y="760" type="line"/>
      <point x="317" y="881" type="line"/>
      <point x="446" y="759" type="line"/>
      <point x="410" y="719" type="line"/>
      <point x="314" y="806" type="line"/>
    </contour>
  </outline>
</glyph>
<glyph name="Edieresis" format="1">
  <advance width="611"/>
  <unicode hex="00CB"/>
  <outline>
    <contour>
      <point x="121" y="56" type="line"/>
      <point x="551" y="56" type="line"/>
      <point x="531" y="0" type="line"/>
      <point x="65" y="0" type="line"/>
      <point x="65" y="681" type="line"/>
      <point x="546" y="681" type="line"/>
      <point x="536" y="625" type="line"/>
      <point x="121" y="625" type="line"/>
      <point x="121" y="382" type="line"/>
      <point x="506" y="382" type="line"/>
      <point x="489" y="326" type="line"/>
      <point x="121" y="326" type="line"/>
    </contour>
    <contour>
      <point x="271" y="819" type="line"/>
      <point x="263" y="737" type="line"/>
      <point x="189" y="727" type="line"/>
      <point x="198" y="809" type="line"/>
    </contour>
    <contour>
      <point x="432" y="819" type="line"/>
      <point x="424" y="737" type="line"/>
      <point x="350" y="727" type="line"/>
      <point x="359" y="809" type="line"/>
    </contour>
  </outline>
</glyph>
<glyph name="Igrave" format="1">
  <advance width="437"/>
  <unicode hex="00CC"/>
  <outline>
    <contour>
      <point x="367" y="625" type="line"/>
      <point x="249" y="625" type="line"/>
      <point x="249" y="56" type="line"/>
      <point x="377" y="56" type="line"/>
      <point x="367" y="0" type="line"/>
      <point x="60" y="0" type="line"/>
      <point x="70" y="56" type="line"/>
      <point x="193" y="56" type="line"/>
      <point x="193" y="625" type="line"/>
      <point x="60" y="625" type="line"/>
      <point x="70" y="681" type="line"/>
      <point x="377" y="681" type="line"/>
    </contour>
    <contour>
      <point x="304" y="754" type="line"/>
      <point x="258" y="726" type="line"/>
      <point x="118" y="866" type="line"/>
      <point x="178" y="900" type="line"/>
    </contour>
  </outline>
</glyph>
<glyph name="Iacute" format="1">
  <advance width="437"/>
  <unicode hex="00CD"/>
  <outline>
    <contour>
      <point x="367" y="625" type="line"/>
      <point x="249" y="625" type="line"/>
      <point x="249" y="56" type="line"/>
      <point x="377" y="56" type="line"/>
      <point x="367" y="0" type="line"/>
      <point x="60" y="0" type="line"/>
      <point x="70" y="56" type="line"/>
      <point x="193" y="56" type="line"/>
      <point x="193" y="625" type="line"/>
      <point x="60" y="625" type="line"/>
      <point x="70" y="681" type="line"/>
      <point x="377" y="681" type="line"/>
    </contour>
    <contour>
      <point x="124" y="771" type="line"/>
      <point x="274" y="893" type="line"/>
      <point x="327" y="848" type="line"/>
      <point x="165" y="736" type="line"/>
    </contour>
  </outline>
</glyph>
<glyph name="Idieresis" format="1">
  <advance width="437"/>
  <unicode hex="00CF"/>
  <outline>
    <contour>
      <point x="367" y="625" type="line"/>
      <point x="249" y="625" type="line"/>
      <point x="249" y="56" type="line"/>
      <point x="377" y="56" type="line"/>
      <point x="367" y="0" type="line"/>
      <point x="60" y="0" type="line"/>
      <point x="70" y="56" type="line"/>
      <point x="193" y="56" type="line"/>
      <point x="193" y="625" type="line"/>
      <point x="60" y="625" type="line"/>
      <point x="70" y="681" type="line"/>
      <point x="377" y="681" type="line"/>
    </contour>
    <contour>
      <point x="185" y="819" type="line"/>
      <point x="177" y="737" type="line"/>
      <point x="103" y="727" type="line"/>
      <point x="112" y="809" type="line"/>
    </contour>
    <contour>
      <point x="346" y="819" type="line"/>
      <point x="338" y="737" type="line"/>
      <point x="264" y="727" type="line"/>
      <point x="273" y="809" type="line"/>
    </contour>
  </outline>
</glyph>
<glyph name="Ntilde" format="1">
  <advance width="615"/>
  <unicode hex="00D1"/>
  <outline>
    <contour>
      <point x="497" y="671" type="line"/>
      <point x="550" y="681" type="line"/>
      <point x="550" y="13" type="line"/>
      <point x="486" y="0" type="line"/>
      <point x="119" y="588" type="line"/>
      <point x="119" y="12" type="line"/>
      <point x="66" y="1" type="line"/>
      <point x="65" y="664" type="line"/>
      <point x="124" y="681" type="line"/>
      <point x="497" y="88" type="line"/>
    </contour>
    <contour>
      <point x="379" y="762" type="curve" smooth="yes"/>
      <point x="412" y="762"/>
      <point x="434" y="824"/>
      <point x="443" y="853" type="curve"/>
      <point x="492" y="837" type="line"/>
      <point x="477" y="772"/>
      <point x="430" y="721"/>
      <point x="379" y="721" type="curve" smooth="yes"/>
      <point x="334" y="721"/>
      <point x="310" y="753"/>
      <point x="290" y="781" type="curve" smooth="yes"/>
      <point x="271" y="807"/>
      <point x="260" y="829"/>
      <point x="243" y="829" type="curve" smooth="yes"/>
      <point x="212" y="829"/>
      <point x="188" y="770"/>
      <point x="182" y="745" type="curve"/>
      <point x="133" y="763" type="line"/>
      <point x="149" y="813"/>
      <point x="182" y="870"/>
      <point x="243" y="870" type="curve" smooth="yes"/>
      <point x="289" y="870"/>
      <point x="313" y="837"/>
      <point x="332" y="811" type="curve" smooth="yes"/>
      <point x="351" y="785"/>
      <point x="362" y="762"/>
    </contour>
  </outline>
</glyph>
<glyph name="Otilde" format="1">
  <advance width="660"/>
  <unicode hex="00D5"/>
  <outline>
    <contour>
      <point x="309" y="0" type="curve" smooth="yes"/>
      <point x="164" y="0"/>
      <point x="60" y="145"/>
      <point x="60" y="315" type="curve" smooth="yes"/>
      <point x="60" y="515"/>
      <point x="195" y="684"/>
      <point x="351" y="684" type="curve" smooth="yes"/>
      <point x="495" y="684"/>
      <point x="600" y="541"/>
      <point x="600" y="369" type="curve" smooth="yes"/>
      <point x="600" y="169"/>
      <point x="465" y="0"/>
    </contour>
    <contour>
      <point x="344" y="632" type="curve" smooth="yes"/>
      <point x="221" y="632"/>
      <point x="113" y="491"/>
      <point x="113" y="315" type="curve" smooth="yes"/>
      <point x="113" y="171"/>
      <point x="195" y="52"/>
      <point x="309" y="52" type="curve" smooth="yes"/>
      <point x="432" y="52"/>
      <point x="547" y="195"/>
      <point x="547" y="365" type="curve" smooth="yes"/>
      <point x="547" y="500"/>
      <point x="463" y="632"/>
    </contour>
    <contour>
      <point x="419" y="762" type="curve" smooth="yes"/>
      <point x="452" y="762"/>
      <point x="474" y="824"/>
      <point x="483" y="853" type="curve"/>
      <point x="532" y="837" type="line"/>
      <point x="517" y="772"/>
      <point x="470" y="721"/>
      <point x="419" y="721" type="curve" smooth="yes"/>
      <point x="374" y="721"/>
      <point x="350" y="753"/>
      <point x="330" y="781" type="curve" smooth="yes"/>
      <point x="311" y="807"/>
      <point x="300" y="829"/>
      <point x="283" y="829" type="curve" smooth="yes"/>
      <point x="252" y="829"/>
      <point x="228" y="770"/>
      <point x="222" y="745" type="curve"/>
      <point x="173" y="763" type="line"/>
      <point x="189" y="813"/>
      <point x="222" y="870"/>
      <point x="283" y="870" type="curve" smooth="yes"/>
      <point x="329" y="870"/>
      <point x="353" y="837"/>
      <point x="372" y="811" type="curve" smooth="yes"/>
      <point x="391" y="785"/>
      <point x="402" y="762"/>
    </contour>
  </outline>
</glyph>
<glyph name="Odieresis" format="1">
  <advance width="660"/>
  <unicode hex="00D6"/>
  <outline>
    <contour>
      <point x="313" y="819" type="line"/>
      <point x="305" y="737" type="line"/>
      <point x="231" y="727" type="line"/>
      <point x="240" y="809" type="line"/>
    </contour>
    <contour>
      <point x="473" y="819" type="line"/>
      <point x="465" y="737" type="line"/>
      <point x="391" y="727" type="line"/>
      <point x="400" y="809" type="line"/>
    </contour>
    <contour>
      <point x="309" y="0" type="curve" smooth="yes"/>
      <point x="164" y="0"/>
      <point x="60" y="145"/>
      <point x="60" y="315" type="curve" smooth="yes"/>
      <point x="60" y="515"/>
      <point x="195" y="684"/>
      <point x="351" y="684" type="curve" smooth="yes"/>
      <point x="495" y="684"/>
      <point x="600" y="541"/>
      <point x="600" y="369" type="curve" smooth="yes"/>
      <point x="600" y="169"/>
      <point x="465" y="0"/>
    </contour>
    <contour>
      <point x="344" y="632" type="curve" smooth="yes"/>
      <point x="221" y="632"/>
      <point x="113" y="491"/>
      <point x="113" y="315" type="curve" smooth="yes"/>
      <point x="113" y="171"/>
      <point x="195" y="52"/>
      <point x="309" y="52" type="curve" smooth="yes"/>
      <point x="432" y="52"/>
      <point x="547" y="195"/>
      <point x="547" y="365" type="curve" smooth="yes"/>
      <point x="547" y="500"/>
      <point x="463" y="632"/>
    </contour>
  </outline>
</glyph>
<glyph name="multiply" format="1">
  <advance width="354"/>
  <unicode hex="00D7"/>
  <outline>
    <contour>
      <point x="215" y="253" type="line"/>
      <point x="299" y="168" type="line"/>
      <point x="262" y="131" type="line"/>
      <point x="178" y="215" type="line"/>
      <point x="91" y="129" type="line"/>
      <point x="54" y="166" type="line"/>
      <point x="141" y="253" type="line"/>
      <point x="63" y="331" type="line"/>
      <point x="100" y="368" type="line"/>
      <point x="178" y="290" type="line"/>
      <point x="263" y="375" type="line"/>
      <point x="300" y="338" type="line"/>
    </contour>
  </outline>
</glyph>
<glyph name="Ucircumflex" format="1">
  <advance width="684"/>
  <unicode hex="00DB"/>
  <outline>
    <contour>
      <point x="342" y="0" type="curve" smooth="yes"/>
      <point x="105" y="0"/>
      <point x="66" y="197"/>
      <point x="66" y="459" type="curve" smooth="yes"/>
      <point x="66" y="529"/>
      <point x="67" y="640"/>
      <point x="68" y="670" type="curve"/>
      <point x="125" y="680" type="line"/>
      <point x="124" y="658"/>
      <point x="122" y="534"/>
      <point x="122" y="450" type="curve" smooth="yes"/>
      <point x="122" y="241"/>
      <point x="145" y="49"/>
      <point x="342" y="49" type="curve" smooth="yes"/>
      <point x="546" y="49"/>
      <point x="562" y="260"/>
      <point x="562" y="431" type="curve" smooth="yes"/>
      <point x="562" y="514"/>
      <point x="561" y="634"/>
      <point x="560" y="669" type="curve"/>
      <point x="616" y="680" type="line"/>
      <point x="617" y="656"/>
      <point x="618" y="550"/>
      <point x="618" y="476" type="curve" smooth="yes"/>
      <point x="618" y="245"/>
      <point x="598" y="0"/>
    </contour>
    <contour>
      <point x="239" y="718" type="line"/>
      <point x="206" y="760" type="line"/>
      <point x="356" y="881" type="line"/>
      <point x="485" y="759" type="line"/>
      <point x="449" y="719" type="line"/>
      <point x="354" y="806" type="line"/>
    </contour>
  </outline>
</glyph>
<glyph name="Thorn" format="1">
  <advance width="506"/>
  <unicode hex="00DE"/>
  <outline>
    <contour>
      <point x="65" y="674" type="line"/>
      <point x="120" y="686" type="line"/>
      <point x="120" y="576" type="line"/>
      <point x="258" y="576"/>
      <point x="476" y="560"/>
      <point x="476" y="377" type="curve" smooth="yes"/>
      <point x="476" y="199"/>
      <point x="262" y="152"/>
      <point x="118" y="143" type="curve"/>
      <point x="118" y="12" type="line"/>
      <point x="65" y="0" type="line"/>
    </contour>
    <contour>
      <point x="119" y="202" type="line"/>
      <point x="295" y="210"/>
      <point x="421" y="268"/>
      <point x="421" y="377" type="curve" smooth="yes"/>
      <point x="421" y="483"/>
      <point x="297" y="519"/>
      <point x="120" y="519" type="curve"/>
    </contour>
  </outline>
</glyph>
<glyph name="acircumflex" format="1">
  <advance width="504"/>
  <unicode hex="00E2"/>
  <outline>
    <contour>
      <point x="439" y="472" type="curve"/>
      <point x="439" y="11" type="line"/>
      <point x="383" y="0" type="line"/>
      <point x="383" y="54" type="line"/>
      <point x="348" y="33"/>
      <point x="294" y="7"/>
      <point x="238" y="7" type="curve" smooth="yes"/>
      <point x="129" y="7"/>
      <point x="50" y="95"/>
      <point x="50" y="223" type="curve" smooth="yes"/>
      <point x="50" y="326"/>
      <point x="114" y="513"/>
      <point x="287" y="513" type="curve" smooth="yes"/>
      <point x="342" y="513"/>
      <point x="394" y="495"/>
    </contour>
    <contour>
      <point x="236" y="62" type="curve"/>
      <point x="296" y="62"/>
      <point x="359" y="103"/>
      <point x="381" y="120" type="curve"/>
      <point x="386" y="436" type="line"/>
      <point x="367" y="444"/>
      <point x="326" y="458"/>
      <point x="292" y="458" type="curve" smooth="yes"/>
      <point x="155" y="458"/>
      <point x="107" y="309"/>
      <point x="107" y="225" type="curve" smooth="yes"/>
      <point x="107" y="153"/>
      <point x="141" y="64"/>
    </contour>
    <contour>
      <point x="174" y="549" type="line"/>
      <point x="141" y="591" type="line"/>
      <point x="292" y="712" type="line"/>
      <point x="421" y="590" type="line"/>
      <point x="385" y="550" type="line"/>
      <point x="289" y="637" type="line"/>
    </contour>
  </outline>
</glyph>
<glyph name="aring" format="1">
  <advance width="504"/>
  <unicode hex="00E5"/>
  <outline>
    <contour>
      <point x="264" y="563" type="curve" smooth="yes"/>
      <point x="195" y="563"/>
      <point x="150" y="615"/>
      <point x="150" y="666" type="curve" smooth="yes"/>
      <point x="150" y="729"/>
      <point x="212" y="778"/>
      <point x="273" y="782" type="curve"/>
      <point x="338" y="782"/>
      <point x="399" y="747"/>
      <point x="399" y="680" type="curve" smooth="yes"/>
      <point x="399" y="610"/>
      <point x="331" y="563"/>
    </contour>
    <contour>
      <point x="282" y="736" type="curve" smooth="yes"/>
      <point x="231" y="736"/>
      <point x="192" y="697"/>
      <point x="192" y="666" type="curve" smooth="yes"/>
      <point x="192" y="628"/>
      <point x="232" y="610"/>
      <point x="266" y="610" type="curve" smooth="yes"/>
      <point x="301" y="610"/>
      <point x="357" y="632"/>
      <point x="357" y="677" type="curve" smooth="yes"/>
      <point x="357" y="711"/>
      <point x="320" y="736"/>
    </contour>
    <contour>
      <point x="439" y="472" type="curve"/>
      <point x="439" y="11" type="line"/>
      <point x="383" y="0" type="line"/>
      <point x="383" y="54" type="line"/>
      <point x="348" y="33"/>
      <point x="294" y="7"/>
      <point x="238" y="7" type="curve" smooth="yes"/>
      <point x="129" y="7"/>
      <point x="50" y="95"/>
      <point x="50" y="223" type="curve" smooth="yes"/>
      <point x="50" y="326"/>
      <point x="114" y="513"/>
      <point x="287" y="513" type="curve" smooth="yes"/>
      <point x="342" y="513"/>
      <point x="394" y="495"/>
    </contour>
    <contour>
      <point x="236" y="62" type="curve"/>
      <point x="296" y="62"/>
      <point x="359" y="103"/>
      <point x="381" y="120" type="curve"/>
      <point x="386" y="436" type="line"/>
      <point x="367" y="444"/>
      <point x="326" y="458"/>
      <point x="292" y="458" type="curve" smooth="yes"/>
      <point x="155" y="458"/>
      <point x="107" y="309"/>
      <point x="107" y="225" type="curve" smooth="yes"/>
      <point x="107" y="153"/>
      <point x="141" y="64"/>
    </contour>
  </outline>
</glyph>
<glyph name="ccedilla" format="1">
  <advance width="507"/>
  <unicode hex="00E7"/>
  <outline>
    <contour>
      <point x="268" y="-159" type="curve" smooth="yes"/>
      <point x="295" y="-159"/>
      <point x="317" y="-137"/>
      <point x="317" y="-110" type="curve" smooth="yes"/>
      <point x="317" y="-83"/>
      <point x="295" y="-61"/>
      <point x="268" y="-61" type="curve" smooth="yes"/>
      <point x="255" y="-61"/>
      <point x="241" y="-67"/>
      <point x="236" y="-72" type="curve"/>
      <point x="207" y="-42" type="line"/>
      <point x="224" y="5" type="line"/>
      <point x="128" y="26"/>
      <point x="51" y="111"/>
      <point x="51" y="216" type="curve" smooth="yes"/>
      <point x="51" y="329"/>
      <point x="138" y="502"/>
      <point x="274" y="502" type="curve" smooth="yes"/>
      <point x="338" y="502"/>
      <point x="391" y="477"/>
      <point x="426" y="430" type="curve"/>
      <point x="386" y="391" type="line"/>
      <point x="363" y="429"/>
      <point x="322" y="450"/>
      <point x="276" y="450" type="curve" smooth="yes"/>
      <point x="177" y="450"/>
      <point x="104" y="309"/>
      <point x="104" y="218" type="curve" smooth="yes"/>
      <point x="104" y="82.4715"/>
      <point x="221.143" y="51.9028"/>
      <point x="272.172" y="51.9028" type="curve" smooth="yes"/>
      <point x="273.855" y="51.9028"/>
      <point x="275.467" y="51.9361"/>
      <point x="277" y="52" type="curve" smooth="yes"/>
      <point x="339" y="55"/>
      <point x="391" y="88"/>
      <point x="417" y="137" type="curve"/>
      <point x="457" y="97" type="line"/>
      <point x="420" y="41"/>
      <point x="355" y="3"/>
      <point x="279" y="0" type="curve"/>
      <point x="258" y="0" type="line"/>
      <point x="257" y="-19" type="line"/>
      <point x="261" y="-19" type="line" smooth="yes"/>
      <point x="317" y="-19"/>
      <point x="359" y="-55"/>
      <point x="359" y="-110" type="curve" smooth="yes"/>
      <point x="359" y="-160"/>
      <point x="318" y="-201"/>
      <point x="268" y="-201" type="curve" smooth="yes"/>
      <point x="239" y="-201"/>
      <point x="213" y="-188"/>
      <point x="196" y="-166" type="curve"/>
      <point x="226" y="-136" type="line"/>
      <point x="231" y="-149"/>
      <point x="252" y="-159"/>
    </contour>
  </outline>
</glyph>
<glyph name="edieresis" format="1">
  <advance width="527"/>
  <unicode hex="00EB"/>
  <outline>
    <contour>
      <point x="292" y="0" type="curve" smooth="yes"/>
      <point x="158" y="0"/>
      <point x="50" y="113"/>
      <point x="50" y="251" type="curve" smooth="yes"/>
      <point x="50" y="388"/>
      <point x="157" y="502"/>
      <point x="292" y="502" type="curve" smooth="yes"/>
      <point x="381" y="502"/>
      <point x="454" y="435"/>
      <point x="477" y="355" type="curve"/>
      <point x="123" y="159" type="line"/>
      <point x="154" y="95"/>
      <point x="218" y="51"/>
      <point x="292" y="51" type="curve" smooth="yes"/>
      <point x="343" y="51"/>
      <point x="391" y="72"/>
      <point x="428" y="111" type="curve"/>
      <point x="465" y="76" type="line"/>
      <point x="419" y="27"/>
      <point x="357" y="0"/>
    </contour>
    <contour>
      <point x="292" y="451" type="curve" smooth="yes"/>
      <point x="183" y="451"/>
      <point x="101" y="357"/>
      <point x="101" y="251" type="curve" smooth="yes"/>
      <point x="101" y="236"/>
      <point x="103" y="222"/>
      <point x="106" y="208" type="curve"/>
      <point x="410" y="378" type="line"/>
      <point x="384" y="424"/>
      <point x="339" y="451"/>
    </contour>
    <contour>
      <point x="240" y="663" type="line"/>
      <point x="232" y="581" type="line"/>
      <point x="158" y="571" type="line"/>
      <point x="167" y="653" type="line"/>
    </contour>
    <contour>
      <point x="400" y="663" type="line"/>
      <point x="392" y="581" type="line"/>
      <point x="318" y="571" type="line"/>
      <point x="327" y="653" type="line"/>
    </contour>
  </outline>
</glyph>
<glyph name="igrave" format="1">
  <advance width="217"/>
  <unicode hex="00EC"/>
  <outline>
    <contour>
      <point x="187" y="585" type="line"/>
      <point x="141" y="557" type="line"/>
      <point x="1" y="697" type="line"/>
      <point x="61" y="731" type="line"/>
    </contour>
    <contour>
      <point x="77" y="491" type="line"/>
      <point x="136" y="500" type="line"/>
      <point x="136" y="10" type="line"/>
      <point x="77" y="0" type="line"/>
    </contour>
  </outline>
</glyph>
<glyph name="iacute" format="1">
  <advance width="205"/>
  <unicode hex="00ED"/>
  <outline>
    <contour>
      <point x="65" y="491" type="line"/>
      <point x="124" y="500" type="line"/>
      <point x="124" y="10" type="line"/>
      <point x="65" y="0" type="line"/>
    </contour>
    <contour>
      <point x="24" y="602" type="line"/>
      <point x="174" y="724" type="line"/>
      <point x="226" y="679" type="line"/>
      <point x="64" y="567" type="line"/>
    </contour>
  </outline>
</glyph>
<glyph name="icircumflex" format="1">
  <advance width="246"/>
  <unicode hex="00EE"/>
  <outline>
    <contour>
      <point x="98" y="491" type="line"/>
      <point x="157" y="500" type="line"/>
      <point x="157" y="10" type="line"/>
      <point x="98" y="0" type="line"/>
    </contour>
    <contour>
      <point x="27" y="549" type="line"/>
      <point x="-6" y="591" type="line"/>
      <point x="144" y="712" type="line"/>
      <point x="273" y="590" type="line"/>
      <point x="237" y="550" type="line"/>
      <point x="141" y="637" type="line"/>
    </contour>
  </outline>
</glyph>
<glyph name="idieresis" format="1">
  <advance width="246"/>
  <unicode hex="00EF"/>
  <outline>
    <contour>
      <point x="93" y="491" type="line"/>
      <point x="152" y="500" type="line"/>
      <point x="152" y="10" type="line"/>
      <point x="93" y="0" type="line"/>
    </contour>
    <contour>
      <point x="95" y="663" type="line"/>
      <point x="87" y="581" type="line"/>
      <point x="13" y="571" type="line"/>
      <point x="22" y="653" type="line"/>
    </contour>
    <contour>
      <point x="255" y="663" type="line"/>
      <point x="247" y="581" type="line"/>
      <point x="173" y="571" type="line"/>
      <point x="182" y="653" type="line"/>
    </contour>
  </outline>
</glyph>
<glyph name="divide" format="1">
  <advance width="407"/>
  <unicode hex="00F7"/>
  <outline>
    <contour>
      <point x="54" y="234" type="line"/>
      <point x="64" y="286" type="line"/>
      <point x="353" y="286" type="line"/>
      <point x="343" y="234" type="line"/>
    </contour>
    <contour>
      <point x="227" y="204" type="line"/>
      <point x="221" y="140" type="line"/>
      <point x="163" y="132" type="line"/>
      <point x="170" y="196" type="line"/>
    </contour>
    <contour>
      <point x="242" y="388" type="line"/>
      <point x="236" y="324" type="line"/>
      <point x="178" y="317" type="line"/>
      <point x="185" y="380" type="line"/>
    </contour>
  </outline>
</glyph>
<glyph name="thorn" format="1">
  <advance width="528"/>
  <unicode hex="00FE"/>
  <outline>
    <contour>
      <point x="303" y="489" type="curve" smooth="yes"/>
      <point x="436" y="489"/>
      <point x="478" y="371"/>
      <point x="478" y="267" type="curve" smooth="yes"/>
      <point x="478" y="214"/>
      <point x="471" y="0"/>
      <point x="259" y="0" type="curve" smooth="yes"/>
      <point x="207" y="0"/>
      <point x="152" y="15"/>
      <point x="121" y="28" type="curve"/>
      <point x="121" y="-185" type="line"/>
      <point x="65" y="-175" type="line"/>
      <point x="65" y="680" type="line"/>
      <point x="121" y="691" type="line"/>
      <point x="121" y="408" type="line"/>
      <point x="152" y="452"/>
      <point x="222" y="489"/>
    </contour>
    <contour>
      <point x="251" y="54" type="curve" smooth="yes"/>
      <point x="377" y="54"/>
      <point x="425" y="140"/>
      <point x="425" y="267" type="curve" smooth="yes"/>
      <point x="425" y="328"/>
      <point x="401" y="433"/>
      <point x="307" y="433" type="curve" smooth="yes"/>
      <point x="200" y="433"/>
      <point x="121" y="369"/>
      <point x="121" y="290" type="curve" smooth="yes"/>
      <point x="121" y="81" type="line"/>
      <point x="139" y="72"/>
      <point x="194" y="54"/>
    </contour>
  </outline>
</glyph>
<glyph name="aogonek" format="1">
  <advance width="510"/>
  <unicode hex="0105"/>
  <outline>
    <contour>
      <point x="439" y="15" type="line"/>
      <point x="404" y="-11" type="line" smooth="yes"/>
      <point x="381" y="-28"/>
      <point x="341" y="-57"/>
      <point x="341" y="-101" type="curve" smooth="yes"/>
      <point x="341" y="-135"/>
      <point x="368" y="-158"/>
      <point x="402" y="-158" type="curve" smooth="yes"/>
      <point x="434" y="-158"/>
      <point x="453" y="-145"/>
      <point x="476" y="-127" type="curve"/>
      <point x="500" y="-159" type="line"/>
      <point x="483" y="-180"/>
      <point x="443" y="-201"/>
      <point x="402" y="-201" type="curve" smooth="yes"/>
      <point x="343" y="-201"/>
      <point x="299" y="-158"/>
      <point x="299" y="-100" type="curve" smooth="yes"/>
      <point x="299" y="-46"/>
      <point x="343" y="0"/>
      <point x="383" y="26" type="curve"/>
      <point x="383" y="54" type="line"/>
      <point x="348" y="33"/>
      <point x="294" y="7"/>
      <point x="238" y="7" type="curve" smooth="yes"/>
      <point x="129" y="7"/>
      <point x="50" y="95"/>
      <point x="50" y="223" type="curve" smooth="yes"/>
      <point x="50" y="326"/>
      <point x="114" y="513"/>
      <point x="287" y="513" type="curve" smooth="yes"/>
      <point x="342" y="513"/>
      <point x="394" y="495"/>
      <point x="439" y="472" type="curve"/>
    </contour>
    <contour>
      <point x="236" y="62" type="curve"/>
      <point x="296" y="62"/>
      <point x="359" y="103"/>
      <point x="381" y="120" type="curve"/>
      <point x="386" y="436" type="line"/>
      <point x="367" y="444"/>
      <point x="326" y="458"/>
      <point x="292" y="458" type="curve" smooth="yes"/>
      <point x="155" y="458"/>
      <point x="107" y="309"/>
      <point x="107" y="225" type="curve" smooth="yes"/>
      <point x="107" y="153"/>
      <point x="141" y="64"/>
    </contour>
  </outline>
</glyph>
<glyph name="Dcaron" format="1">
  <advance width="616"/>
  <unicode hex="010E"/>
  <outline>
    <contour>
      <point x="65" y="1" type="curve"/>
      <point x="65" y="680" type="line"/>
      <point x="91" y="680" type="line" smooth="yes"/>
      <point x="209" y="680"/>
      <point x="295" y="657"/>
      <point x="355" y="628" type="curve" smooth="yes"/>
      <point x="486" y="566"/>
      <point x="556" y="453"/>
      <point x="556" y="301" type="curve" smooth="yes"/>
      <point x="556" y="99"/>
      <point x="430" y="-15"/>
      <point x="207" y="-15" type="curve" smooth="yes"/>
      <point x="169" y="-15"/>
      <point x="105" y="-10"/>
    </contour>
    <contour>
      <point x="119" y="627" type="curve"/>
      <point x="119" y="45" type="line"/>
      <point x="138" y="42"/>
      <point x="170" y="39"/>
      <point x="207" y="39" type="curve" smooth="yes"/>
      <point x="262" y="39"/>
      <point x="341" y="47"/>
      <point x="402" y="86" type="curve" smooth="yes"/>
      <point x="468" y="129"/>
      <point x="502" y="201"/>
      <point x="502" y="301" type="curve" smooth="yes"/>
      <point x="502" y="432"/>
      <point x="445" y="525"/>
      <point x="331" y="579" type="curve" smooth="yes"/>
      <point x="250" y="617"/>
      <point x="160" y="626"/>
    </contour>
    <contour>
      <point x="384" y="881" type="line"/>
      <point x="417" y="838" type="line"/>
      <point x="267" y="718" type="line"/>
      <point x="138" y="840" type="line"/>
      <point x="174" y="880" type="line"/>
      <point x="270" y="792" type="line"/>
    </contour>
  </outline>
</glyph>
<glyph name="dcaron" format="1">
  <advance width="609"/>
  <unicode hex="010F"/>
  <outline>
    <contour>
      <point x="564" y="691" type="line"/>
      <point x="634" y="652" type="line"/>
      <point x="541" y="486" type="line"/>
      <point x="492" y="514" type="line"/>
      <point x="546" y="610" type="line"/>
      <point x="507" y="632" type="line"/>
    </contour>
    <contour>
      <point x="404" y="687" type="line"/>
      <point x="461" y="697" type="line"/>
      <point x="445" y="10" type="line"/>
      <point x="389" y="0" type="line"/>
      <point x="391" y="80" type="line"/>
      <point x="356" y="48"/>
      <point x="300" y="6"/>
      <point x="221" y="6" type="curve" smooth="yes"/>
      <point x="104" y="6"/>
      <point x="51" y="117"/>
      <point x="51" y="226" type="curve" smooth="yes"/>
      <point x="51" y="315"/>
      <point x="78" y="495"/>
      <point x="270" y="495" type="curve" smooth="yes"/>
      <point x="325" y="495"/>
      <point x="367" y="479"/>
      <point x="399" y="464" type="curve"/>
    </contour>
    <contour>
      <point x="393" y="162" type="curve" smooth="yes"/>
      <point x="398" y="404" type="line"/>
      <point x="380" y="414"/>
      <point x="323" y="442"/>
      <point x="264" y="442" type="curve" smooth="yes"/>
      <point x="130" y="442"/>
      <point x="106" y="314"/>
      <point x="106" y="229" type="curve" smooth="yes"/>
      <point x="106" y="163"/>
      <point x="126" y="55"/>
      <point x="221" y="55" type="curve" smooth="yes"/>
      <point x="323" y="55"/>
      <point x="392" y="131"/>
    </contour>
  </outline>
</glyph>
<glyph name="dcroat" format="1">
  <advance width="550"/>
  <unicode hex="0111"/>
  <outline>
    <contour>
      <point x="404" y="687" type="line"/>
      <point x="461" y="697" type="line"/>
      <point x="459" y="605" type="line"/>
      <point x="559" y="605" type="line"/>
      <point x="549" y="553" type="line"/>
      <point x="457" y="553" type="line"/>
      <point x="445" y="10" type="line"/>
      <point x="389" y="0" type="line"/>
      <point x="391" y="80" type="line"/>
      <point x="356" y="48"/>
      <point x="300" y="6"/>
      <point x="221" y="6" type="curve" smooth="yes"/>
      <point x="104" y="6"/>
      <point x="51" y="117"/>
      <point x="51" y="226" type="curve" smooth="yes"/>
      <point x="51" y="315"/>
      <point x="78" y="495"/>
      <point x="270" y="495" type="curve" smooth="yes"/>
      <point x="325" y="495"/>
      <point x="367" y="479"/>
      <point x="399" y="464" type="curve"/>
      <point x="401" y="553" type="line"/>
      <point x="303" y="553" type="line"/>
      <point x="313" y="605" type="line"/>
      <point x="402" y="605" type="line"/>
    </contour>
    <contour>
      <point x="393" y="162" type="curve" smooth="yes"/>
      <point x="398" y="404" type="line"/>
      <point x="380" y="414"/>
      <point x="323" y="442"/>
      <point x="264" y="442" type="curve" smooth="yes"/>
      <point x="130" y="442"/>
      <point x="106" y="314"/>
      <point x="106" y="229" type="curve" smooth="yes"/>
      <point x="106" y="163"/>
      <point x="126" y="55"/>
      <point x="221" y="55" type="curve" smooth="yes"/>
      <point x="323" y="55"/>
      <point x="392" y="131"/>
    </contour>
  </outline>
</glyph>
<glyph name="Eogonek" format="1">
  <advance width="611"/>
  <unicode hex="0118"/>
  <outline>
    <contour>
      <point x="538" y="-127" type="curve"/>
      <point x="562" y="-159" type="line"/>
      <point x="545" y="-180"/>
      <point x="505" y="-201"/>
      <point x="464" y="-201" type="curve" smooth="yes"/>
      <point x="405" y="-201"/>
      <point x="361" y="-158"/>
      <point x="361" y="-100" type="curve" smooth="yes"/>
      <point x="361" y="-61"/>
      <point x="383" y="-26"/>
      <point x="411" y="0" type="curve"/>
      <point x="65" y="0" type="line"/>
      <point x="65" y="681" type="line"/>
      <point x="546" y="681" type="line"/>
      <point x="536" y="625" type="line"/>
      <point x="121" y="625" type="line"/>
      <point x="121" y="382" type="line"/>
      <point x="506" y="382" type="line"/>
      <point x="489" y="326" type="line"/>
      <point x="121" y="326" type="line"/>
      <point x="121" y="56" type="line"/>
      <point x="551" y="56" type="line"/>
      <point x="531" y="0" type="line"/>
      <point x="481" y="0" type="line"/>
      <point x="466" y="-11" type="line" smooth="yes"/>
      <point x="441" y="-30"/>
      <point x="403" y="-57"/>
      <point x="403" y="-101" type="curve" smooth="yes"/>
      <point x="403" y="-135"/>
      <point x="430" y="-158"/>
      <point x="464" y="-158" type="curve" smooth="yes"/>
      <point x="496" y="-158"/>
      <point x="515" y="-145"/>
    </contour>
  </outline>
</glyph>
<glyph name="eogonek" format="1">
  <advance width="527"/>
  <unicode hex="0119"/>
  <outline>
    <contour>
      <point x="396" y="-127" type="curve"/>
      <point x="420" y="-159" type="line"/>
      <point x="403" y="-180"/>
      <point x="363" y="-201"/>
      <point x="322" y="-201" type="curve" smooth="yes"/>
      <point x="263" y="-201"/>
      <point x="219" y="-158"/>
      <point x="219" y="-100" type="curve" smooth="yes"/>
      <point x="219" y="-60"/>
      <point x="242" y="-25"/>
      <point x="270" y="1" type="curve"/>
      <point x="146" y="12"/>
      <point x="50" y="120"/>
      <point x="50" y="251" type="curve" smooth="yes"/>
      <point x="50" y="388"/>
      <point x="157" y="502"/>
      <point x="292" y="502" type="curve" smooth="yes"/>
      <point x="381" y="502"/>
      <point x="454" y="435"/>
      <point x="477" y="355" type="curve"/>
      <point x="123" y="159" type="line"/>
      <point x="154" y="95"/>
      <point x="218" y="51"/>
      <point x="292" y="51" type="curve" smooth="yes"/>
      <point x="343" y="51"/>
      <point x="391" y="72"/>
      <point x="428" y="111" type="curve"/>
      <point x="465" y="76" type="line"/>
      <point x="447" y="54"/>
      <point x="418" y="37"/>
      <point x="387" y="21" type="curve" smooth="yes"/>
      <point x="327" y="-10"/>
      <point x="261" y="-39"/>
      <point x="261" y="-101" type="curve" smooth="yes"/>
      <point x="261" y="-135"/>
      <point x="288" y="-158"/>
      <point x="322" y="-158" type="curve" smooth="yes"/>
      <point x="354" y="-158"/>
      <point x="373" y="-145"/>
    </contour>
    <contour>
      <point x="292" y="451" type="curve" smooth="yes"/>
      <point x="183" y="451"/>
      <point x="101" y="357"/>
      <point x="101" y="251" type="curve" smooth="yes"/>
      <point x="101" y="236"/>
      <point x="103" y="222"/>
      <point x="106" y="208" type="curve"/>
      <point x="410" y="378" type="line"/>
      <point x="384" y="424"/>
      <point x="339" y="451"/>
    </contour>
  </outline>
</glyph>
<glyph name="Ecaron" format="1">
  <advance width="611"/>
  <unicode hex="011A"/>
  <outline>
    <contour>
      <point x="121" y="56" type="line"/>
      <point x="551" y="56" type="line"/>
      <point x="531" y="0" type="line"/>
      <point x="65" y="0" type="line"/>
      <point x="65" y="681" type="line"/>
      <point x="546" y="681" type="line"/>
      <point x="536" y="625" type="line"/>
      <point x="121" y="625" type="line"/>
      <point x="121" y="382" type="line"/>
      <point x="506" y="382" type="line"/>
      <point x="489" y="326" type="line"/>
      <point x="121" y="326" type="line"/>
    </contour>
    <contour>
      <point x="414" y="881" type="line"/>
      <point x="447" y="838" type="line"/>
      <point x="296" y="718" type="line"/>
      <point x="167" y="840" type="line"/>
      <point x="203" y="880" type="line"/>
      <point x="299" y="792" type="line"/>
    </contour>
  </outline>
</glyph>
<glyph name="gcircumflex" format="1">
  <advance width="522"/>
  <unicode hex="011D"/>
  <outline>
    <contour>
      <point x="457" y="508" type="line"/>
      <point x="446" y="19" type="line" smooth="yes"/>
      <point x="443" y="-112"/>
      <point x="369" y="-185"/>
      <point x="244" y="-185" type="curve" smooth="yes"/>
      <point x="196" y="-185"/>
      <point x="148" y="-178"/>
      <point x="117" y="-171" type="curve"/>
      <point x="129" y="-116" type="line"/>
      <point x="157" y="-122"/>
      <point x="201" y="-129"/>
      <point x="244" y="-129" type="curve" smooth="yes"/>
      <point x="375" y="-129"/>
      <point x="389" y="-25"/>
      <point x="390" y="18" type="curve" smooth="yes"/>
      <point x="392" y="79" type="line"/>
      <point x="356" y="31"/>
      <point x="307" y="0"/>
      <point x="249" y="0" type="curve" smooth="yes"/>
      <point x="135" y="0"/>
      <point x="51" y="100"/>
      <point x="51" y="237" type="curve" smooth="yes"/>
      <point x="51" y="366"/>
      <point x="144" y="501"/>
      <point x="288" y="501" type="curve" smooth="yes"/>
      <point x="335" y="501"/>
      <point x="374" y="484"/>
      <point x="400" y="469" type="curve"/>
      <point x="400" y="499" type="line"/>
    </contour>
    <contour>
      <point x="396" y="413" type="line"/>
      <point x="372" y="431"/>
      <point x="333" y="446"/>
      <point x="293" y="446" type="curve" smooth="yes"/>
      <point x="181" y="446"/>
      <point x="100" y="348"/>
      <point x="100" y="237" type="curve" smooth="yes"/>
      <point x="100" y="167"/>
      <point x="142" y="53"/>
      <point x="244" y="53" type="curve" smooth="yes"/>
      <point x="314" y="54"/>
      <point x="396" y="105"/>
      <point x="396" y="268" type="curve" smooth="yes"/>
    </contour>
    <contour>
      <point x="174" y="549" type="line"/>
      <point x="141" y="591" type="line"/>
      <point x="292" y="712" type="line"/>
      <point x="421" y="590" type="line"/>
      <point x="385" y="550" type="line"/>
      <point x="289" y="637" type="line"/>
    </contour>
  </outline>
</glyph>
<glyph name="Hcircumflex" format="1">
  <advance width="683"/>
  <unicode hex="0124"/>
  <outline>
    <contour>
      <point x="562" y="671" type="line"/>
      <point x="618" y="681" type="line"/>
      <point x="618" y="20" type="line"/>
      <point x="562" y="0" type="line"/>
      <point x="562" y="349" type="line"/>
      <point x="121" y="287" type="line"/>
      <point x="121" y="20" type="line"/>
      <point x="65" y="0" type="line"/>
      <point x="65" y="671" type="line"/>
      <point x="121" y="681" type="line"/>
      <point x="121" y="344" type="line"/>
      <point x="562" y="406" type="line"/>
    </contour>
    <contour>
      <point x="237" y="718" type="line"/>
      <point x="204" y="760" type="line"/>
      <point x="354" y="881" type="line"/>
      <point x="483" y="759" type="line"/>
      <point x="447" y="719" type="line"/>
      <point x="351" y="806" type="line"/>
    </contour>
  </outline>
</glyph>
<glyph name="Jcircumflex" format="1">
  <advance width="469"/>
  <unicode hex="0134"/>
  <outline>
    <contour>
      <point x="188" y="679" type="line"/>
      <point x="449" y="679" type="line"/>
      <point x="449" y="622" type="line"/>
      <point x="398" y="622" type="line"/>
      <point x="398" y="162" type="line" smooth="yes"/>
      <point x="398" y="67"/>
      <point x="327" y="1"/>
      <point x="224" y="1" type="curve" smooth="yes"/>
      <point x="123" y="1"/>
      <point x="50" y="69"/>
      <point x="50" y="162" type="curve" smooth="yes"/>
      <point x="50" y="197" type="line"/>
      <point x="106" y="207" type="line"/>
      <point x="106" y="162" type="line" smooth="yes"/>
      <point x="106" y="99"/>
      <point x="154" y="52"/>
      <point x="224" y="52" type="curve" smooth="yes"/>
      <point x="296" y="52"/>
      <point x="342" y="98"/>
      <point x="342" y="162" type="curve" smooth="yes"/>
      <point x="342" y="622" type="line"/>
      <point x="188" y="622" type="line"/>
    </contour>
    <contour>
      <point x="218" y="718" type="line"/>
      <point x="185" y="760" type="line"/>
      <point x="335" y="881" type="line"/>
      <point x="464" y="759" type="line"/>
      <point x="428" y="719" type="line"/>
      <point x="332" y="806" type="line"/>
    </contour>
  </outline>
</glyph>
<glyph name="jcircumflex" format="1">
  <advance width="313"/>
  <unicode hex="0135"/>
  <outline>
    <contour>
      <point x="-40" y="-10" type="curve"/>
      <point x="16" y="2" type="line"/>
      <point x="33" y="-38"/>
      <point x="78" y="-129"/>
      <point x="126" y="-129" type="curve" smooth="yes"/>
      <point x="171" y="-129"/>
      <point x="191" y="-73"/>
      <point x="191" y="-5" type="curve" smooth="yes"/>
      <point x="191" y="12"/>
      <point x="188" y="239"/>
      <point x="184" y="502" type="curve"/>
      <point x="241" y="513" type="line"/>
      <point x="245" y="247"/>
      <point x="248" y="17"/>
      <point x="248" y="0" type="curve" smooth="yes"/>
      <point x="248" y="-72"/>
      <point x="220" y="-180"/>
      <point x="126" y="-180" type="curve" smooth="yes"/>
      <point x="27" y="-180"/>
      <point x="-33" y="-27"/>
    </contour>
    <contour>
      <point x="94" y="549" type="line"/>
      <point x="61" y="591" type="line"/>
      <point x="212" y="712" type="line"/>
      <point x="341" y="590" type="line"/>
      <point x="305" y="550" type="line"/>
      <point x="209" y="637" type="line"/>
    </contour>
  </outline>
</glyph>
<glyph name="Lcaron" format="1">
  <advance width="532"/>
  <unicode hex="013D"/>
  <outline>
    <contour>
      <point x="110" y="0" type="line"/>
      <point x="110" y="668" type="line"/>
      <point x="166" y="678" type="line"/>
      <point x="166" y="60" type="line"/>
      <point x="507" y="85" type="line"/>
      <point x="511" y="29" type="line"/>
    </contour>
    <contour>
      <point x="311" y="881" type="line"/>
      <point x="344" y="838" type="line"/>
      <point x="194" y="718" type="line"/>
      <point x="65" y="840" type="line"/>
      <point x="101" y="880" type="line"/>
      <point x="197" y="792" type="line"/>
    </contour>
  </outline>
</glyph>
<glyph name="lcaron" format="1">
  <advance width="290"/>
  <unicode hex="013E"/>
  <outline>
    <contour>
      <point x="85" y="681" type="line"/>
      <point x="141" y="692" type="line"/>
      <point x="141" y="10" type="line"/>
      <point x="85" y="0" type="line"/>
    </contour>
    <contour>
      <point x="245" y="694" type="line"/>
      <point x="315" y="655" type="line"/>
      <point x="222" y="489" type="line"/>
      <point x="173" y="517" type="line"/>
      <point x="227" y="613" type="line"/>
      <point x="188" y="635" type="line"/>
    </contour>
  </outline>
</glyph>
<glyph name="Lslash" format="1">
  <advance width="549"/>
  <unicode hex="0141"/>
  <outline>
    <contour>
      <point x="528" y="29" type="line"/>
      <point x="127" y="0" type="line"/>
      <point x="127" y="295" type="line"/>
      <point x="74" y="261" type="line"/>
      <point x="42" y="308" type="line"/>
      <point x="127" y="362" type="line"/>
      <point x="127" y="668" type="line"/>
      <point x="183" y="678" type="line"/>
      <point x="183" y="397" type="line"/>
      <point x="237" y="432" type="line"/>
      <point x="268" y="384" type="line"/>
      <point x="183" y="330" type="line"/>
      <point x="183" y="60" type="line"/>
      <point x="524" y="85" type="line"/>
    </contour>
  </outline>
</glyph>
<glyph name="lslash" format="1">
  <advance width="266"/>
  <unicode hex="0142"/>
  <outline>
    <contour>
      <point x="246" y="384" type="line"/>
      <point x="161" y="330" type="line"/>
      <point x="161" y="10" type="line"/>
      <point x="105" y="0" type="line"/>
      <point x="105" y="294" type="line"/>
      <point x="52" y="261" type="line"/>
      <point x="20" y="308" type="line"/>
      <point x="105" y="362" type="line"/>
      <point x="105" y="681" type="line"/>
      <point x="161" y="692" type="line"/>
      <point x="161" y="397" type="line"/>
      <point x="215" y="432" type="line"/>
    </contour>
  </outline>
</glyph>
<glyph name="Nacute" format="1">
  <advance width="615"/>
  <unicode hex="0143"/>
  <outline>
    <contour>
      <point x="497" y="671" type="line"/>
      <point x="550" y="681" type="line"/>
      <point x="550" y="13" type="line"/>
      <point x="486" y="0" type="line"/>
      <point x="119" y="588" type="line"/>
      <point x="119" y="12" type="line"/>
      <point x="66" y="1" type="line"/>
      <point x="65" y="664" type="line"/>
      <point x="124" y="681" type="line"/>
      <point x="497" y="88" type="line"/>
    </contour>
    <contour>
      <point x="207" y="771" type="line"/>
      <point x="357" y="893" type="line"/>
      <point x="410" y="848" type="line"/>
      <point x="248" y="736" type="line"/>
    </contour>
  </outline>
</glyph>
<glyph name="Ncaron" format="1">
  <advance width="615"/>
  <unicode hex="0147"/>
  <outline>
    <contour>
      <point x="497" y="671" type="line"/>
      <point x="550" y="681" type="line"/>
      <point x="550" y="13" type="line"/>
      <point x="486" y="0" type="line"/>
      <point x="119" y="588" type="line"/>
      <point x="119" y="12" type="line"/>
      <point x="66" y="1" type="line"/>
      <point x="65" y="664" type="line"/>
      <point x="124" y="681" type="line"/>
      <point x="497" y="88" type="line"/>
    </contour>
    <contour>
      <point x="425" y="881" type="line"/>
      <point x="458" y="838" type="line"/>
      <point x="307" y="718" type="line"/>
      <point x="178" y="840" type="line"/>
      <point x="214" y="880" type="line"/>
      <point x="310" y="792" type="line"/>
    </contour>
  </outline>
</glyph>
<glyph name="oe" format="1">
  <advance width="911"/>
  <unicode hex="0153"/>
  <outline>
    <contour>
      <point x="676" y="51" type="curve" smooth="yes"/>
      <point x="727" y="51"/>
      <point x="775" y="72"/>
      <point x="812" y="111" type="curve"/>
      <point x="849" y="76" type="line"/>
      <point x="803" y="27"/>
      <point x="741" y="0"/>
      <point x="676" y="0" type="curve" smooth="yes"/>
      <point x="579" y="0"/>
      <point x="496" y="59"/>
      <point x="457" y="144" type="curve"/>
      <point x="417" y="59"/>
      <point x="339" y="0"/>
      <point x="252" y="0" type="curve" smooth="yes"/>
      <point x="137" y="0"/>
      <point x="50" y="104"/>
      <point x="50" y="230" type="curve" smooth="yes"/>
      <point x="50" y="376"/>
      <point x="157" y="500"/>
      <point x="283" y="500" type="curve" smooth="yes"/>
      <point x="360" y="500"/>
      <point x="430" y="451"/>
      <point x="464" y="372" type="curve"/>
      <point x="505" y="448"/>
      <point x="584" y="502"/>
      <point x="676" y="502" type="curve" smooth="yes"/>
      <point x="758" y="502"/>
      <point x="838" y="435"/>
      <point x="861" y="355" type="curve"/>
      <point x="861" y="355"/>
      <point x="613" y="218"/>
      <point x="507" y="159" type="curve"/>
      <point x="538" y="95"/>
      <point x="602" y="51"/>
    </contour>
    <contour>
      <point x="427" y="265" type="curve" smooth="yes"/>
      <point x="427" y="365"/>
      <point x="361" y="452"/>
      <point x="278" y="452" type="curve" smooth="yes"/>
      <point x="185" y="452"/>
      <point x="107" y="349"/>
      <point x="107" y="232" type="curve" smooth="yes"/>
      <point x="107" y="133"/>
      <point x="165" y="48"/>
      <point x="252" y="48" type="curve" smooth="yes"/>
      <point x="341" y="48"/>
      <point x="427" y="150"/>
    </contour>
    <contour>
      <point x="485" y="251" type="curve" smooth="yes"/>
      <point x="485" y="236"/>
      <point x="487" y="222"/>
      <point x="490" y="208" type="curve"/>
      <point x="794" y="378" type="line"/>
      <point x="768" y="424"/>
      <point x="723" y="451"/>
      <point x="676" y="451" type="curve" smooth="yes"/>
      <point x="570" y="451"/>
      <point x="485" y="361"/>
    </contour>
  </outline>
</glyph>
<glyph name="Racute" format="1">
  <advance width="594"/>
  <unicode hex="0154"/>
  <outline>
    <contour>
      <point x="120" y="237" type="curve"/>
      <point x="120" y="10" type="line"/>
      <point x="65" y="0" type="line"/>
      <point x="65" y="681" type="line"/>
      <point x="87" y="684"/>
      <point x="141" y="686"/>
      <point x="174" y="687" type="curve"/>
      <point x="316" y="687"/>
      <point x="522" y="658"/>
      <point x="522" y="476" type="curve" smooth="yes"/>
      <point x="522" y="392"/>
      <point x="450" y="311"/>
      <point x="335" y="275" type="curve"/>
      <point x="392" y="240"/>
      <point x="471" y="172"/>
      <point x="544" y="37" type="curve"/>
      <point x="501" y="0" type="line"/>
      <point x="423" y="151"/>
      <point x="336" y="213"/>
      <point x="288" y="238" type="curve" smooth="yes"/>
      <point x="272" y="246"/>
      <point x="245" y="249"/>
      <point x="224" y="249" type="curve" smooth="yes"/>
      <point x="200" y="249"/>
      <point x="154" y="244"/>
    </contour>
    <contour>
      <point x="121" y="630" type="line"/>
      <point x="121" y="295" type="line"/>
      <point x="318" y="302"/>
      <point x="467" y="374"/>
      <point x="467" y="470" type="curve" smooth="yes"/>
      <point x="467" y="557"/>
      <point x="401" y="630"/>
      <point x="163" y="630" type="curve" smooth="yes"/>
    </contour>
    <contour>
      <point x="158" y="771" type="line"/>
      <point x="308" y="893" type="line"/>
      <point x="361" y="848" type="line"/>
      <point x="198" y="736" type="line"/>
    </contour>
  </outline>
</glyph>
<glyph name="racute" format="1">
  <advance width="401"/>
  <unicode hex="0155"/>
  <outline>
    <contour>
      <point x="375" y="431" type="curve" smooth="yes"/>
      <point x="375" y="389" type="line"/>
      <point x="320" y="379" type="line"/>
      <point x="320" y="412" type="line" smooth="yes"/>
      <point x="320" y="433"/>
      <point x="316" y="447"/>
      <point x="286" y="447" type="curve" smooth="yes"/>
      <point x="215" y="447"/>
      <point x="121" y="348"/>
      <point x="121" y="252" type="curve" smooth="yes"/>
      <point x="121" y="10" type="line"/>
      <point x="65" y="0" type="line"/>
      <point x="65" y="492" type="line"/>
      <point x="121" y="502" type="line"/>
      <point x="121" y="376" type="line"/>
      <point x="152" y="430"/>
      <point x="211" y="502"/>
      <point x="293" y="502" type="curve" smooth="yes"/>
      <point x="340" y="502"/>
      <point x="375" y="470"/>
    </contour>
    <contour>
      <point x="133" y="602" type="line"/>
      <point x="283" y="724" type="line"/>
      <point x="335" y="679" type="line"/>
      <point x="173" y="567" type="line"/>
    </contour>
  </outline>
</glyph>
<glyph name="rcaron" format="1">
  <advance width="402"/>
  <unicode hex="0159"/>
  <outline>
    <contour>
      <point x="375" y="431" type="curve" smooth="yes"/>
      <point x="375" y="389" type="line"/>
      <point x="320" y="379" type="line"/>
      <point x="320" y="412" type="line" smooth="yes"/>
      <point x="320" y="433"/>
      <point x="316" y="447"/>
      <point x="286" y="447" type="curve" smooth="yes"/>
      <point x="215" y="447"/>
      <point x="121" y="348"/>
      <point x="121" y="252" type="curve" smooth="yes"/>
      <point x="121" y="10" type="line"/>
      <point x="65" y="0" type="line"/>
      <point x="65" y="492" type="line"/>
      <point x="121" y="502" type="line"/>
      <point x="121" y="376" type="line"/>
      <point x="152" y="430"/>
      <point x="211" y="502"/>
      <point x="293" y="502" type="curve" smooth="yes"/>
      <point x="340" y="502"/>
      <point x="375" y="470"/>
    </contour>
    <contour>
      <point x="343" y="712" type="line"/>
      <point x="376" y="669" type="line"/>
      <point x="225" y="549" type="line"/>
      <point x="96" y="671" type="line"/>
      <point x="132" y="711" type="line"/>
      <point x="228" y="623" type="line"/>
    </contour>
  </outline>
</glyph>
<glyph name="Scedilla" format="1">
  <advance width="599"/>
  <unicode hex="015E"/>
  <outline>
    <contour>
      <point x="297" y="-159" type="curve" smooth="yes"/>
      <point x="324" y="-159"/>
      <point x="346" y="-137"/>
      <point x="346" y="-110" type="curve" smooth="yes"/>
      <point x="346" y="-83"/>
      <point x="324" y="-61"/>
      <point x="297" y="-61" type="curve" smooth="yes"/>
      <point x="284" y="-61"/>
      <point x="270" y="-67"/>
      <point x="265" y="-72" type="curve"/>
      <point x="236" y="-42" type="line"/>
      <point x="252" y="3" type="line"/>
      <point x="159" y="18"/>
      <point x="85" y="74"/>
      <point x="60" y="152" type="curve"/>
      <point x="121" y="162" type="line"/>
      <point x="148" y="86"/>
      <point x="232" y="52"/>
      <point x="304" y="52" type="curve" smooth="yes"/>
      <point x="398" y="52"/>
      <point x="475" y="105"/>
      <point x="475" y="197" type="curve" smooth="yes"/>
      <point x="475" y="228"/>
      <point x="464" y="287"/>
      <point x="306" y="330" type="curve" smooth="yes"/>
      <point x="209" y="356"/>
      <point x="96" y="410"/>
      <point x="96" y="507" type="curve" smooth="yes"/>
      <point x="96" y="649"/>
      <point x="228" y="681"/>
      <point x="329" y="681" type="curve" smooth="yes"/>
      <point x="419" y="681"/>
      <point x="535" y="649"/>
      <point x="535" y="539" type="curve" smooth="yes"/>
      <point x="535" y="533"/>
      <point x="535" y="527"/>
      <point x="534" y="521" type="curve"/>
      <point x="482" y="510" type="line"/>
      <point x="483" y="515"/>
      <point x="483" y="522"/>
      <point x="483" y="526" type="curve" smooth="yes"/>
      <point x="483" y="609"/>
      <point x="387" y="631"/>
      <point x="329" y="631" type="curve" smooth="yes"/>
      <point x="187" y="631"/>
      <point x="160" y="562"/>
      <point x="160" y="505" type="curve" smooth="yes"/>
      <point x="160" y="455"/>
      <point x="214" y="416"/>
      <point x="319" y="387" type="curve" smooth="yes"/>
      <point x="466" y="346"/>
      <point x="538" y="282"/>
      <point x="538" y="190" type="curve" smooth="yes"/>
      <point x="538" y="60"/>
      <point x="406" y="-1"/>
      <point x="305" y="-1" type="curve" smooth="yes"/>
      <point x="299" y="-1"/>
      <point x="293" y="-1"/>
      <point x="287" y="0" type="curve"/>
      <point x="286" y="-19" type="line"/>
      <point x="290" y="-19" type="line" smooth="yes"/>
      <point x="346" y="-19"/>
      <point x="388" y="-55"/>
      <point x="388" y="-110" type="curve" smooth="yes"/>
      <point x="388" y="-160"/>
      <point x="347" y="-201"/>
      <point x="297" y="-201" type="curve" smooth="yes"/>
      <point x="268" y="-201"/>
      <point x="242" y="-188"/>
      <point x="225" y="-166" type="curve"/>
      <point x="255" y="-136" type="line"/>
      <point x="260" y="-149"/>
      <point x="281" y="-159"/>
    </contour>
  </outline>
</glyph>
<glyph name="scedilla" format="1">
  <advance width="460"/>
  <unicode hex="015F"/>
  <outline>
    <contour>
      <point x="241" y="-159" type="curve" smooth="yes"/>
      <point x="268" y="-159"/>
      <point x="290" y="-137"/>
      <point x="290" y="-110" type="curve" smooth="yes"/>
      <point x="290" y="-83"/>
      <point x="268" y="-61"/>
      <point x="241" y="-61" type="curve" smooth="yes"/>
      <point x="228" y="-61"/>
      <point x="214" y="-67"/>
      <point x="209" y="-72" type="curve"/>
      <point x="180" y="-42" type="line"/>
      <point x="196" y="3" type="line"/>
      <point x="128" y="14"/>
      <point x="68" y="55"/>
      <point x="50" y="121" type="curve"/>
      <point x="105" y="130" type="line"/>
      <point x="121" y="77"/>
      <point x="178" y="50"/>
      <point x="234" y="50" type="curve" smooth="yes"/>
      <point x="297" y="50"/>
      <point x="353" y="88"/>
      <point x="353" y="144" type="curve" smooth="yes"/>
      <point x="353" y="197"/>
      <point x="300" y="222"/>
      <point x="234" y="240" type="curve" smooth="yes"/>
      <point x="161" y="259"/>
      <point x="78" y="299"/>
      <point x="78" y="376" type="curve" smooth="yes"/>
      <point x="78" y="483"/>
      <point x="180" y="505"/>
      <point x="254" y="505" type="curve" smooth="yes"/>
      <point x="311" y="505"/>
      <point x="407" y="486"/>
      <point x="407" y="397" type="curve" smooth="yes"/>
      <point x="407" y="391"/>
      <point x="407" y="385"/>
      <point x="406" y="379" type="curve"/>
      <point x="357" y="369" type="line"/>
      <point x="358" y="374"/>
      <point x="358" y="379"/>
      <point x="358" y="384" type="curve" smooth="yes"/>
      <point x="358" y="440"/>
      <point x="300" y="458"/>
      <point x="254" y="458" type="curve" smooth="yes"/>
      <point x="160" y="457"/>
      <point x="135" y="419"/>
      <point x="135" y="373" type="curve" smooth="yes"/>
      <point x="135" y="339"/>
      <point x="172" y="312"/>
      <point x="247" y="292" type="curve" smooth="yes"/>
      <point x="356" y="262"/>
      <point x="409" y="214"/>
      <point x="409" y="145" type="curve" smooth="yes"/>
      <point x="409" y="31"/>
      <point x="291" y="0"/>
      <point x="234" y="0" type="curve" smooth="yes"/>
      <point x="231" y="0" type="line"/>
      <point x="230" y="-19" type="line"/>
      <point x="234" y="-19" type="line" smooth="yes"/>
      <point x="290" y="-19"/>
      <point x="332" y="-55"/>
      <point x="332" y="-110" type="curve" smooth="yes"/>
      <point x="332" y="-160"/>
      <point x="291" y="-201"/>
      <point x="241" y="-201" type="curve" smooth="yes"/>
      <point x="212" y="-201"/>
      <point x="186" y="-188"/>
      <point x="169" y="-166" type="curve"/>
      <point x="199" y="-136" type="line"/>
      <point x="204" y="-149"/>
      <point x="225" y="-159"/>
    </contour>
  </outline>
</glyph>
<glyph name="Scaron" format="1">
  <advance width="599"/>
  <unicode hex="0160"/>
  <outline>
    <contour>
      <point x="160" y="505" type="curve" smooth="yes"/>
      <point x="160" y="455"/>
      <point x="214" y="416"/>
      <point x="319" y="387" type="curve" smooth="yes"/>
      <point x="466" y="346"/>
      <point x="538" y="282"/>
      <point x="538" y="190" type="curve" smooth="yes"/>
      <point x="538" y="60"/>
      <point x="406" y="-1"/>
      <point x="305" y="-1" type="curve" smooth="yes"/>
      <point x="187" y="-1"/>
      <point x="90" y="60"/>
      <point x="60" y="152" type="curve"/>
      <point x="121" y="162" type="line"/>
      <point x="148" y="86"/>
      <point x="232" y="52"/>
      <point x="304" y="52" type="curve" smooth="yes"/>
      <point x="398" y="52"/>
      <point x="475" y="105"/>
      <point x="475" y="197" type="curve" smooth="yes"/>
      <point x="475" y="228"/>
      <point x="464" y="287"/>
      <point x="306" y="330" type="curve" smooth="yes"/>
      <point x="209" y="356"/>
      <point x="96" y="410"/>
      <point x="96" y="507" type="curve" smooth="yes"/>
      <point x="96" y="649"/>
      <point x="228" y="681"/>
      <point x="329" y="681" type="curve" smooth="yes"/>
      <point x="419" y="681"/>
      <point x="535" y="649"/>
      <point x="535" y="539" type="curve" smooth="yes"/>
      <point x="535" y="533"/>
      <point x="535" y="527"/>
      <point x="534" y="521" type="curve"/>
      <point x="482" y="510" type="line"/>
      <point x="483" y="515"/>
      <point x="483" y="522"/>
      <point x="483" y="526" type="curve" smooth="yes"/>
      <point x="483" y="609"/>
      <point x="387" y="631"/>
      <point x="329" y="631" type="curve" smooth="yes"/>
      <point x="187" y="631"/>
      <point x="160" y="562"/>
    </contour>
    <contour>
      <point x="438" y="881" type="line"/>
      <point x="471" y="838" type="line"/>
      <point x="321" y="718" type="line"/>
      <point x="192" y="840" type="line"/>
      <point x="228" y="880" type="line"/>
      <point x="324" y="792" type="line"/>
    </contour>
  </outline>
</glyph>
<glyph name="scaron" format="1">
  <advance width="460"/>
  <unicode hex="0161"/>
  <outline>
    <contour>
      <point x="254" y="505" type="curve" smooth="yes"/>
      <point x="311" y="505"/>
      <point x="407" y="486"/>
      <point x="407" y="397" type="curve" smooth="yes"/>
      <point x="407" y="391"/>
      <point x="407" y="385"/>
      <point x="406" y="379" type="curve"/>
      <point x="357" y="369" type="line"/>
      <point x="358" y="374"/>
      <point x="358" y="379"/>
      <point x="358" y="384" type="curve" smooth="yes"/>
      <point x="358" y="440"/>
      <point x="300" y="458"/>
      <point x="254" y="458" type="curve" smooth="yes"/>
      <point x="160" y="457"/>
      <point x="135" y="419"/>
      <point x="135" y="373" type="curve" smooth="yes"/>
      <point x="135" y="339"/>
      <point x="172" y="312"/>
      <point x="247" y="292" type="curve" smooth="yes"/>
      <point x="356" y="262"/>
      <point x="409" y="214"/>
      <point x="409" y="145" type="curve" smooth="yes"/>
      <point x="409" y="31"/>
      <point x="291" y="0"/>
      <point x="234" y="0" type="curve" smooth="yes"/>
      <point x="151" y="0"/>
      <point x="72" y="44"/>
      <point x="50" y="121" type="curve"/>
      <point x="105" y="130" type="line"/>
      <point x="121" y="77"/>
      <point x="178" y="50"/>
      <point x="234" y="50" type="curve" smooth="yes"/>
      <point x="297" y="50"/>
      <point x="353" y="88"/>
      <point x="353" y="144" type="curve" smooth="yes"/>
      <point x="353" y="197"/>
      <point x="300" y="222"/>
      <point x="234" y="240" type="curve" smooth="yes"/>
      <point x="161" y="259"/>
      <point x="78" y="299"/>
      <point x="78" y="376" type="curve" smooth="yes"/>
      <point x="78" y="483"/>
      <point x="180" y="505"/>
    </contour>
    <contour>
      <point x="358" y="712" type="line"/>
      <point x="391" y="669" type="line"/>
      <point x="240" y="549" type="line"/>
      <point x="111" y="671" type="line"/>
      <point x="147" y="711" type="line"/>
      <point x="243" y="623" type="line"/>
    </contour>
  </outline>
</glyph>
<glyph name="Tcaron" format="1">
  <advance width="522"/>
  <unicode hex="0164"/>
  <outline>
    <contour>
      <point x="225" y="0" type="line"/>
      <point x="225" y="625" type="line"/>
      <point x="10" y="625" type="line"/>
      <point x="10" y="681" type="line"/>
      <point x="512" y="681" type="line"/>
      <point x="512" y="625" type="line"/>
      <point x="282" y="625" type="line"/>
      <point x="282" y="10" type="line"/>
    </contour>
    <contour>
      <point x="373" y="881" type="line"/>
      <point x="406" y="838" type="line"/>
      <point x="256" y="718" type="line"/>
      <point x="127" y="840" type="line"/>
      <point x="163" y="880" type="line"/>
      <point x="259" y="792" type="line"/>
    </contour>
  </outline>
</glyph>
<glyph name="Ubreve" format="1">
  <advance width="684"/>
  <unicode hex="016C"/>
  <outline>
    <contour>
      <point x="342" y="0" type="curve" smooth="yes"/>
      <point x="105" y="0"/>
      <point x="66" y="197"/>
      <point x="66" y="459" type="curve" smooth="yes"/>
      <point x="66" y="529"/>
      <point x="67" y="640"/>
      <point x="68" y="670" type="curve"/>
      <point x="125" y="680" type="line"/>
      <point x="124" y="658"/>
      <point x="122" y="534"/>
      <point x="122" y="450" type="curve" smooth="yes"/>
      <point x="122" y="241"/>
      <point x="145" y="49"/>
      <point x="342" y="49" type="curve" smooth="yes"/>
      <point x="546" y="49"/>
      <point x="562" y="260"/>
      <point x="562" y="431" type="curve" smooth="yes"/>
      <point x="562" y="514"/>
      <point x="561" y="634"/>
      <point x="560" y="669" type="curve"/>
      <point x="616" y="680" type="line"/>
      <point x="617" y="656"/>
      <point x="618" y="550"/>
      <point x="618" y="476" type="curve" smooth="yes"/>
      <point x="618" y="245"/>
      <point x="598" y="0"/>
    </contour>
    <contour>
      <point x="350" y="785" type="curve" smooth="yes"/>
      <point x="413" y="785"/>
      <point x="442" y="814"/>
      <point x="460" y="863" type="curve"/>
      <point x="491" y="832" type="line"/>
      <point x="472" y="777"/>
      <point x="412" y="739"/>
      <point x="349" y="739" type="curve" smooth="yes"/>
      <point x="279" y="739"/>
      <point x="221" y="775"/>
      <point x="197" y="828" type="curve"/>
      <point x="227" y="858" type="line"/>
      <point x="261" y="797"/>
      <point x="313" y="785"/>
    </contour>
  </outline>
</glyph>
<glyph name="Uring" format="1">
  <advance width="684"/>
  <unicode hex="016E"/>
  <outline>
    <contour>
      <point x="342" y="0" type="curve" smooth="yes"/>
      <point x="105" y="0"/>
      <point x="66" y="197"/>
      <point x="66" y="459" type="curve" smooth="yes"/>
      <point x="66" y="529"/>
      <point x="67" y="640"/>
      <point x="68" y="670" type="curve"/>
      <point x="125" y="680" type="line"/>
      <point x="124" y="658"/>
      <point x="122" y="534"/>
      <point x="122" y="450" type="curve" smooth="yes"/>
      <point x="122" y="241"/>
      <point x="145" y="49"/>
      <point x="342" y="49" type="curve" smooth="yes"/>
      <point x="546" y="49"/>
      <point x="562" y="260"/>
      <point x="562" y="431" type="curve" smooth="yes"/>
      <point x="562" y="514"/>
      <point x="561" y="634"/>
      <point x="560" y="669" type="curve"/>
      <point x="616" y="680" type="line"/>
      <point x="617" y="656"/>
      <point x="618" y="550"/>
      <point x="618" y="476" type="curve" smooth="yes"/>
      <point x="618" y="245"/>
      <point x="598" y="0"/>
    </contour>
    <contour>
      <point x="342" y="721" type="curve" smooth="yes"/>
      <point x="275" y="721"/>
      <point x="228" y="768"/>
      <point x="228" y="823" type="curve" smooth="yes"/>
      <point x="228" y="886"/>
      <point x="288" y="940"/>
      <point x="362" y="940" type="curve" smooth="yes"/>
      <point x="432" y="940"/>
      <point x="476" y="888"/>
      <point x="476" y="837" type="curve" smooth="yes"/>
      <point x="476" y="763"/>
      <point x="405" y="721"/>
    </contour>
    <contour>
      <point x="359" y="893" type="curve" smooth="yes"/>
      <point x="324" y="893"/>
      <point x="270" y="868"/>
      <point x="270" y="823" type="curve" smooth="yes"/>
      <point x="270" y="790"/>
      <point x="303" y="767"/>
      <point x="344" y="767" type="curve" smooth="yes"/>
      <point x="386" y="767"/>
      <point x="435" y="796"/>
      <point x="435" y="835" type="curve" smooth="yes"/>
      <point x="435" y="866"/>
      <point x="400" y="893"/>
    </contour>
  </outline>
</glyph>
<glyph name="uring" format="1">
  <advance width="515"/>
  <unicode hex="016F"/>
  <outline>
    <contour>
      <point x="270" y="563" type="curve" smooth="yes"/>
      <point x="201" y="563"/>
      <point x="156" y="615"/>
      <point x="156" y="666" type="curve" smooth="yes"/>
      <point x="156" y="729"/>
      <point x="218" y="778"/>
      <point x="279" y="782" type="curve"/>
      <point x="344" y="782"/>
      <point x="405" y="747"/>
      <point x="405" y="680" type="curve" smooth="yes"/>
      <point x="405" y="610"/>
      <point x="337" y="563"/>
    </contour>
    <contour>
      <point x="288" y="736" type="curve" smooth="yes"/>
      <point x="237" y="736"/>
      <point x="198" y="697"/>
      <point x="198" y="666" type="curve" smooth="yes"/>
      <point x="198" y="628"/>
      <point x="238" y="610"/>
      <point x="272" y="610" type="curve" smooth="yes"/>
      <point x="307" y="610"/>
      <point x="363" y="632"/>
      <point x="363" y="677" type="curve" smooth="yes"/>
      <point x="363" y="711"/>
      <point x="326" y="736"/>
    </contour>
    <contour>
      <point x="119" y="289" type="curve" smooth="yes"/>
      <point x="120" y="168"/>
      <point x="116" y="43"/>
      <point x="218" y="43" type="curve" smooth="yes"/>
      <point x="287" y="43"/>
      <point x="358" y="92"/>
      <point x="379" y="116" type="curve" smooth="yes"/>
      <point x="386" y="124"/>
      <point x="392" y="138"/>
      <point x="392" y="159" type="curve" smooth="yes"/>
      <point x="397" y="494" type="line"/>
      <point x="450" y="504" type="line"/>
      <point x="450" y="10" type="line"/>
      <point x="388" y="0" type="line"/>
      <point x="388" y="74" type="line"/>
      <point x="363" y="36"/>
      <point x="295" y="-6"/>
      <point x="217" y="-6" type="curve" smooth="yes"/>
      <point x="66" y="-6"/>
      <point x="65" y="143"/>
      <point x="65" y="283" type="curve" smooth="yes"/>
      <point x="65" y="326"/>
      <point x="68" y="423"/>
      <point x="81" y="494" type="curve"/>
      <point x="136" y="504" type="line"/>
      <point x="133" y="488"/>
      <point x="119" y="374"/>
    </contour>
  </outline>
</glyph>
<glyph name="Ydieresis" format="1">
  <advance width="628"/>
  <unicode hex="0178"/>
  <outline>
    <contour>
      <point x="322" y="266" type="line"/>
      <point x="566" y="677" type="line"/>
      <point x="628" y="677" type="line"/>
      <point x="226" y="0" type="line"/>
      <point x="164" y="0" type="line"/>
      <point x="290" y="214" type="line"/>
      <point x="20" y="677" type="line"/>
      <point x="82" y="677" type="line"/>
    </contour>
    <contour>
      <point x="297" y="819" type="line"/>
      <point x="289" y="737" type="line"/>
      <point x="215" y="727" type="line"/>
      <point x="224" y="809" type="line"/>
    </contour>
    <contour>
      <point x="457" y="819" type="line"/>
      <point x="449" y="737" type="line"/>
      <point x="375" y="727" type="line"/>
      <point x="384" y="809" type="line"/>
    </contour>
  </outline>
</glyph>
<glyph name="zacute" format="1">
  <advance width="453"/>
  <unicode hex="017A"/>
  <outline>
    <contour>
      <point x="406" y="0" type="line"/>
      <point x="52" y="0" type="line"/>
      <point x="30" y="46" type="line"/>
      <point x="348" y="446" type="line"/>
      <point x="52" y="446" type="line"/>
      <point x="62" y="502" type="line"/>
      <point x="401" y="502" type="line"/>
      <point x="423" y="457" type="line"/>
      <point x="105" y="56" type="line"/>
      <point x="416" y="56" type="line"/>
    </contour>
    <contour>
      <point x="138" y="602" type="line"/>
      <point x="288" y="724" type="line"/>
      <point x="341" y="679" type="line"/>
      <point x="178" y="567" type="line"/>
    </contour>
  </outline>
</glyph>
<glyph name="caron" format="1">
  <advance width="500"/>
  <unicode hex="02C7"/>
  <outline>
    <contour>
      <point x="356" y="712" type="line"/>
      <point x="389" y="669" type="line"/>
      <point x="239" y="549" type="line"/>
      <point x="110" y="671" type="line"/>
      <point x="146" y="711" type="line"/>
      <point x="242" y="623" type="line"/>
    </contour>
  </outline>
</glyph>
<glyph name="breve" format="1">
  <advance width="500"/>
  <unicode hex="02D8"/>
  <outline>
    <contour>
      <point x="256" y="605" type="curve" smooth="yes"/>
      <point x="319" y="605"/>
      <point x="348" y="634"/>
      <point x="366" y="683" type="curve"/>
      <point x="397" y="652" type="line"/>
      <point x="378" y="597"/>
      <point x="318" y="559"/>
      <point x="255" y="559" type="curve" smooth="yes"/>
      <point x="185" y="559"/>
      <point x="127" y="595"/>
      <point x="103" y="648" type="curve"/>
      <point x="133" y="678" type="line"/>
      <point x="167" y="617"/>
      <point x="219" y="605"/>
    </contour>
  </outline>
</glyph>
<glyph name="ogonek" format="1">
  <advance width="500"/>
  <unicode hex="02DB"/>
  <outline>
    <contour>
      <point x="326" y="-127" type="curve"/>
      <point x="350" y="-159" type="line"/>
      <point x="333" y="-180"/>
      <point x="293" y="-201"/>
      <point x="252" y="-201" type="curve" smooth="yes"/>
      <point x="193" y="-201"/>
      <point x="149" y="-158"/>
      <point x="149" y="-100" type="curve" smooth="yes"/>
      <point x="149" y="-40"/>
      <point x="203" y="10"/>
      <point x="246" y="34" type="curve" smooth="yes"/>
      <point x="262" y="43" type="line"/>
      <point x="285" y="12" type="line"/>
      <point x="254" y="-11" type="line" smooth="yes"/>
      <point x="229" y="-30"/>
      <point x="191" y="-57"/>
      <point x="191" y="-101" type="curve" smooth="yes"/>
      <point x="191" y="-135"/>
      <point x="218" y="-158"/>
      <point x="252" y="-158" type="curve" smooth="yes"/>
      <point x="284" y="-158"/>
      <point x="303" y="-145"/>
    </contour>
  </outline>
</glyph>
<glyph name="endash" format="1">
  <advance width="596"/>
  <unicode hex="2013"/>
  <outline>
    <contour>
      <point x="516" y="222" type="line"/>
      <point x="71" y="222" type="line"/>
      <point x="81" y="276" type="line"/>
      <point x="527" y="276" type="line"/>
    </contour>
  </outline>
</glyph>
<glyph name="quoteleft" format="1">
  <advance width="182"/>
  <unicode hex="2018"/>
  <outline>
    <contour>
      <point x="90" y="544" type="line"/>
      <point x="20" y="583" type="line"/>
      <point x="113" y="749" type="line"/>
      <point x="162" y="721" type="line"/>
      <point x="108" y="625" type="line"/>
      <point x="147" y="603" type="line"/>
    </contour>
  </outline>
</glyph>
<glyph name="quotedblleft" format="1">
  <advance width="348"/>
  <unicode hex="201C"/>
  <outline>
    <contour>
      <point x="256" y="544" type="line"/>
      <point x="186" y="583" type="line"/>
      <point x="279" y="749" type="line"/>
      <point x="328" y="721" type="line"/>
      <point x="274" y="625" type="line"/>
      <point x="313" y="603" type="line"/>
    </contour>
    <contour>
      <point x="90" y="544" type="line"/>
      <point x="20" y="583" type="line"/>
      <point x="113" y="749" type="line"/>
      <point x="162" y="721" type="line"/>
      <point x="108" y="625" type="line"/>
      <point x="147" y="603" type="line"/>
    </contour>
  </outline>
</glyph>
<glyph name="quotedblright" format="1">
  <advance width="348"/>
  <unicode hex="201D"/>
  <outline>
    <contour>
      <point x="92" y="749" type="line"/>
      <point x="162" y="710" type="line"/>
      <point x="69" y="544" type="line"/>
      <point x="20" y="572" type="line"/>
      <point x="74" y="668" type="line"/>
      <point x="35" y="690" type="line"/>
    </contour>
    <contour>
      <point x="258" y="749" type="line"/>
      <point x="328" y="710" type="line"/>
      <point x="235" y="544" type="line"/>
      <point x="186" y="572" type="line"/>
      <point x="240" y="668" type="line"/>
      <point x="201" y="690" type="line"/>
    </contour>
  </outline>
</glyph>
<glyph name="quotedblbase" format="1">
  <advance width="482"/>
  <unicode hex="201E"/>
  <outline>
    <contour>
      <point x="162" y="79" type="line"/>
      <point x="232" y="40" type="line"/>
      <point x="139" y="-126" type="line"/>
      <point x="90" y="-98" type="line"/>
      <point x="144" y="-2" type="line"/>
      <point x="105" y="20" type="line"/>
    </contour>
    <contour>
      <point x="328" y="79" type="line"/>
      <point x="398" y="40" type="line"/>
      <point x="305" y="-126" type="line"/>
      <point x="256" y="-98" type="line"/>
      <point x="310" y="-2" type="line"/>
      <point x="271" y="20" type="line"/>
    </contour>
  </outline>
</glyph>
<glyph name="bullet" format="1">
  <advance width="378"/>
  <unicode hex="2022"/>
  <outline>
    <contour>
      <point x="278" y="253" type="curve" smooth="yes"/>
      <point x="278" y="204"/>
      <point x="239" y="164"/>
      <point x="190" y="164" type="curve" smooth="yes"/>
      <point x="141" y="164"/>
      <point x="101" y="204"/>
      <point x="101" y="253" type="curve" smooth="yes"/>
      <point x="101" y="302"/>
      <point x="141" y="342"/>
      <point x="190" y="342" type="curve" smooth="yes"/>
      <point x="239" y="342"/>
      <point x="278" y="302"/>
    </contour>
  </outline>
</glyph>
<glyph name="ellipsis" format="1">
  <advance width="734"/>
  <unicode hex="2026"/>
  <outline>
    <contour>
      <point x="151" y="92" type="line"/>
      <point x="143" y="10" type="line"/>
      <point x="69" y="0" type="line"/>
      <point x="78" y="82" type="line"/>
    </contour>
    <contour>
      <point x="663" y="92" type="line"/>
      <point x="655" y="10" type="line"/>
      <point x="581" y="0" type="line"/>
      <point x="590" y="82" type="line"/>
    </contour>
    <contour>
      <point x="407" y="92" type="line"/>
      <point x="399" y="10" type="line"/>
      <point x="325" y="0" type="line"/>
      <point x="334" y="82" type="line"/>
    </contour>
  </outline>
</glyph>
<glyph name="guilsinglright" format="1">
  <advance width="404"/>
  <unicode hex="203A"/>
  <outline>
    <contour>
      <point x="129" y="66" type="line"/>
      <point x="92" y="106" type="line"/>
      <point x="252" y="251" type="line"/>
      <point x="76" y="402" type="line"/>
      <point x="111" y="442" type="line"/>
      <point x="334" y="252" type="line"/>
    </contour>
  </outline>
</glyph>
<glyph name="Euro" format="1">
  <advance width="663"/>
  <unicode hex="20AC"/>
  <outline>
    <contour>
      <point x="423" y="0" type="curve" smooth="yes"/>
      <point x="281" y="0"/>
      <point x="151" y="121"/>
      <point x="142" y="261" type="curve"/>
      <point x="61" y="261" type="line"/>
      <point x="71" y="318" type="line"/>
      <point x="141" y="318" type="line"/>
      <point x="142" y="342"/>
      <point x="146" y="365"/>
      <point x="150" y="385" type="curve"/>
      <point x="61" y="385" type="line"/>
      <point x="71" y="442" type="line"/>
      <point x="166" y="442" type="line"/>
      <point x="187" y="514"/>
      <point x="285" y="691"/>
      <point x="435" y="691" type="curve" smooth="yes"/>
      <point x="500" y="691"/>
      <point x="557" y="669"/>
      <point x="600" y="630" type="curve"/>
      <point x="561" y="594" type="line"/>
      <point x="533" y="617"/>
      <point x="492" y="637"/>
      <point x="430" y="637" type="curve" smooth="yes"/>
      <point x="336" y="637"/>
      <point x="250" y="519"/>
      <point x="222" y="442" type="curve"/>
      <point x="450" y="442" type="line"/>
      <point x="440" y="385" type="line"/>
      <point x="204" y="385" type="line"/>
      <point x="198" y="361"/>
      <point x="195" y="339"/>
      <point x="193" y="318" type="curve"/>
      <point x="430" y="318" type="line"/>
      <point x="419" y="261" type="line"/>
      <point x="195" y="261" type="line"/>
      <point x="203" y="160"/>
      <point x="310" y="54"/>
      <point x="417" y="54" type="curve" smooth="yes"/>
      <point x="476" y="54"/>
      <point x="519" y="68"/>
      <point x="553" y="89" type="curve"/>
      <point x="592" y="51" type="line"/>
      <point x="546" y="19"/>
      <point x="485" y="0"/>
    </contour>
  </outline>
</glyph>
<glyph name="trademark" format="1">
  <advance width="559"/>
  <unicode hex="2122"/>
  <outline>
    <contour>
      <point x="540" y="692" type="line"/>
      <point x="610" y="469" type="line"/>
      <point x="565" y="461" type="line"/>
      <point x="515" y="617" type="line"/>
      <point x="460" y="470" type="line"/>
      <point x="408" y="460" type="line"/>
      <point x="367" y="619" type="line"/>
      <point x="306" y="470" type="line"/>
      <point x="252" y="460" type="line"/>
      <point x="343" y="682" type="line"/>
      <point x="396" y="691" type="line"/>
      <point x="436" y="535" type="line"/>
      <point x="490" y="683" type="line"/>
    </contour>
    <contour>
      <point x="293" y="691" type="line"/>
      <point x="293" y="645" type="line"/>
      <point x="176" y="645" type="line"/>
      <point x="176" y="471" type="line"/>
      <point x="130" y="461" type="line"/>
      <point x="130" y="645" type="line"/>
      <point x="5" y="645" type="line"/>
      <point x="5" y="691" type="line"/>
    </contour>
  </outline>
</glyph>
<glyph name=".notdef" format="1">
  <advance width="500"/>
  <outline>
    <contour>
      <point x="18" y="681" type="line"/>
      <point x="480" y="681" type="line"/>
      <point x="480" y="0" type="line"/>
      <point x="18" y="0" type="line"/>
    </contour>
    <contour>
      <point x="271" y="340" type="line"/>
      <point x="440" y="66" type="line"/>
      <point x="440" y="599" type="line"/>
    </contour>
    <contour>
      <point x="247" y="303" type="line"/>
      <point x="75" y="40" type="line"/>
      <point x="409" y="40" type="line"/>
    </contour>
    <contour>
      <point x="86" y="641" type="line"/>
      <point x="248" y="378" type="line"/>
      <point x="420" y="641" type="line"/>
    </contour>
    <contour>
      <point x="224" y="341" type="line"/>
      <point x="58" y="610" type="line"/>
      <point x="58" y="87" type="line"/>
    </contour>
  </outline>
</glyph>
